<svg width="650" height="495" viewBox="0 0 650 495" fill="none" xmlns="http://www.w3.org/2000/svg">
<path d="M95.0115 444.563C221.691 510.799 427.083 510.799 553.762 444.563C680.442 378.327 680.442 271.087 553.762 204.913C427.083 138.739 221.691 138.678 95.0115 204.913C-31.6679 271.149 -31.6679 378.374 95.0115 444.563Z" fill="#F5F5F5"/>
<path d="M164.991 140.141L195.521 122.52L164.991 104.898L134.184 122.52L164.991 140.141Z" stroke="#EBEBEB" stroke-width="1.08419" stroke-linecap="round" stroke-linejoin="round"/>
<path d="M141.285 122.535L165.007 53.9731V136.228L141.285 122.535Z" fill="#E0E0E0"/>
<path d="M165.004 136.228L188.71 122.535L165.004 53.9731V136.228Z" fill="#E6E6E6"/>
<path d="M127.684 161.644L158.214 144.023L127.684 126.401L96.877 144.023L127.684 161.644Z" stroke="#EBEBEB" stroke-width="1.08419" stroke-linecap="round" stroke-linejoin="round"/>
<path d="M103.975 144.038L127.681 42.2197V157.732L103.975 144.038Z" fill="#E0E0E0"/>
<path d="M127.682 157.732L151.388 144.038L127.682 42.2197V157.732Z" fill="#E6E6E6"/>
<path d="M90.3754 183.148L120.905 165.527L90.3754 147.905L59.5527 165.527L90.3754 183.148Z" stroke="#EBEBEB" stroke-width="1.08419" stroke-linecap="round" stroke-linejoin="round"/>
<path d="M66.6699 165.542L90.3761 104.898V179.236L66.6699 165.542Z" fill="#E0E0E0"/>
<path d="M90.375 179.236L114.081 165.542L90.375 104.898V179.236Z" fill="#E6E6E6"/>
<path d="M53.0668 204.651L83.5968 187.03L53.0668 169.408L22.2441 187.03L53.0668 204.651Z" stroke="#EBEBEB" stroke-width="1.08419" stroke-linecap="round" stroke-linejoin="round"/>
<path d="M29.3457 187.046L53.0673 84.0879V200.74L29.3457 187.046Z" fill="#E0E0E0"/>
<path d="M53.0684 200.74L76.7745 187.046L53.0684 84.0879V200.74Z" fill="#E6E6E6"/>
<path d="M459.955 116.712L622.771 210.705" stroke="#EBEBEB" stroke-width="1.08419" stroke-miterlimit="10" stroke-linecap="round"/>
<path d="M622.774 200.739C622.577 188.94 621.749 177.16 620.294 165.449C618.753 152.726 615.672 131.253 603.427 124.168C591.181 117.082 586.56 129.898 584.788 136.198C582.478 144.377 570.478 139.202 568.815 125.723C567.151 112.245 566.057 69.2999 551.67 61.0281C537.283 52.7564 532.647 72.7041 531.014 78.2802C527.795 89.2322 518.352 86.2131 515.272 78.958C512.191 71.7029 503.781 69.9314 500.607 80.144C497.434 90.3566 495.478 102.079 485.204 96.056C476.177 90.7725 480.321 81.1453 471.525 76.5704C464.563 72.966 461.328 90.1564 461.328 107.547L622.774 200.739Z" fill="#E0E0E0"/>
<path d="M610.939 111.106C610.939 112.985 609.245 113.524 607.181 112.338L594.858 105.191C593.845 104.616 592.979 103.816 592.327 102.851C591.675 101.886 591.255 100.784 591.1 99.63C591.1 97.7661 592.794 97.2116 594.858 98.4131L607.181 105.56C608.194 106.131 609.06 106.929 609.712 107.891C610.364 108.853 610.784 109.954 610.939 111.106Z" fill="#E6E6E6"/>
<path d="M560.356 50.6769C560.356 52.5562 558.677 53.0953 556.597 51.9092L544.274 44.7619C543.259 44.1906 542.391 43.3906 541.738 42.4254C541.086 41.4602 540.667 40.3563 540.516 39.2012C540.516 37.3374 542.195 36.7829 544.274 37.9843L556.597 45.1316C557.611 45.7006 558.479 46.4979 559.131 47.4604C559.784 48.423 560.203 49.5242 560.356 50.6769Z" fill="#E6E6E6"/>
<path d="M520.289 61.798C520.289 63.6773 518.61 64.2164 516.546 63.0303L504.223 55.883C503.208 55.3117 502.34 54.5117 501.687 53.5465C501.035 52.5813 500.617 51.4774 500.465 50.3223C500.465 48.4585 502.144 47.904 504.223 49.1054L516.546 56.2527C517.557 56.8244 518.421 57.6227 519.07 58.585C519.72 59.5472 520.137 60.6471 520.289 61.798Z" fill="#E6E6E6"/>
<path d="M482.305 65.4797C482.305 67.3589 480.626 67.898 478.546 66.6966L466.224 59.5647C465.213 58.9897 464.349 58.1884 463.699 57.2236C463.05 56.2589 462.633 55.1569 462.48 54.004C462.48 52.1401 464.159 51.5856 466.224 52.7871L478.546 59.919C479.56 60.4922 480.427 61.2927 481.079 62.2576C481.731 63.2224 482.151 64.3253 482.305 65.4797Z" fill="#E6E6E6"/>
<path d="M453.176 102.833V1" stroke="#EBEBEB" stroke-width="1.08419" stroke-miterlimit="10" stroke-linecap="round"/>
<path d="M58.5228 328.081C58.5228 328.081 61.049 305.468 54.0403 283.934C47.4476 263.571 34.2005 252.773 26.1752 249.538C11.0026 243.484 9.64709 260.197 21.015 271.765C29.3483 280.268 49.4039 297.797 52.8543 327.526L58.5228 328.081Z" fill="#0A69D7"/>
<path opacity="0.7" d="M58.5228 328.081C58.5228 328.081 61.049 305.468 54.0403 283.934C47.4476 263.571 34.2005 252.773 26.1752 249.538C11.0026 243.484 9.64709 260.197 21.015 271.765C29.3483 280.268 49.4039 297.797 52.8543 327.526L58.5228 328.081Z" fill="white"/>
<path d="M22.0762 254.205C31.2413 260.367 55.8717 278.158 56.7651 327.911" stroke="#FAFAFA" stroke-width="1.08419" stroke-miterlimit="10" stroke-linecap="round"/>
<path d="M52.0669 343.53C47.3534 320.733 37.7261 312.461 20.5203 303.65C13.1573 299.892 4.53129 295.702 1.41976 290.912C-1.69177 286.121 -0.1206 279.682 10.4771 279.821C29.8395 280.083 51.8975 303.419 54.8395 328.989L52.0669 343.53Z" fill="#0A69D7"/>
<path opacity="0.8" d="M52.0669 343.53C47.3534 320.733 37.7261 312.461 20.5203 303.65C13.1573 299.892 4.53129 295.702 1.41976 290.912C-1.69177 286.121 -0.1206 279.682 10.4771 279.821C29.8395 280.083 51.8975 303.419 54.8395 328.989L52.0669 343.53Z" fill="white"/>
<path d="M8.84375 284.781C23.4618 286.768 46.5518 303.805 53.884 334.073" stroke="#FAFAFA" stroke-width="1.08419" stroke-miterlimit="10" stroke-linecap="round"/>
<path d="M592.103 317.406C598.033 306.007 602.639 274.03 595.014 259.242C587.389 244.455 576.052 245.641 574.296 250.431C572.756 254.852 576.56 262.754 581.49 272.166C586.419 281.577 590.578 301.741 585.91 311.137L592.103 317.406Z" fill="#0A69D7"/>
<path opacity="0.7" d="M592.103 317.406C598.033 306.007 602.639 274.03 595.014 259.242C587.389 244.455 576.052 245.641 574.296 250.431C572.756 254.852 576.56 262.754 581.49 272.166C586.419 281.577 590.578 301.741 585.91 311.137L592.103 317.406Z" fill="white"/>
<path d="M581.783 251.202C586.635 255.099 600.529 278.928 590.81 311.63" stroke="#FAFAFA" stroke-width="1.08419" stroke-miterlimit="10" stroke-linecap="round"/>
<path d="M590.225 329.482C586.652 322.335 578.827 310.505 584.156 302.387C589.486 294.27 595.062 301.448 599.344 296.149C603.627 290.85 598.728 282.286 602.425 277.665C609.572 268.576 614.748 279.128 620.355 277.742C624.406 276.74 628.919 267.76 640.58 268.854C652.24 269.947 651.655 279.189 646.464 283.533C641.273 287.877 635.112 292.206 639.117 298.721C642.659 304.498 644.492 315.172 632.37 319.316C620.786 323.275 626.516 328.296 624.668 333.965C622.82 339.633 611.883 345.009 600.253 340.635L590.225 329.482Z" fill="#0A69D7"/>
<path opacity="0.8" d="M590.225 329.482C586.652 322.335 578.827 310.505 584.156 302.387C589.486 294.27 595.062 301.448 599.344 296.149C603.627 290.85 598.728 282.286 602.425 277.665C609.572 268.576 614.748 279.128 620.355 277.742C624.406 276.74 628.919 267.76 640.58 268.854C652.24 269.947 651.655 279.189 646.464 283.533C641.273 287.877 635.112 292.206 639.117 298.721C642.659 304.498 644.492 315.172 632.37 319.316C620.786 323.275 626.516 328.296 624.668 333.965C622.82 339.633 611.883 345.009 600.253 340.635L590.225 329.482Z" fill="white"/>
<path d="M642.181 274.091C629.55 277.48 599.297 302.064 596.74 332.917" stroke="#FAFAFA" stroke-width="1.08419" stroke-miterlimit="10" stroke-linecap="round"/>
<path d="M633.076 306.485C626.837 305.068 610.987 304.868 605.057 307.748" stroke="#FAFAFA" stroke-width="1.08419" stroke-miterlimit="10" stroke-linecap="round"/>
<path d="M608.584 280.376C608.584 280.376 613.205 289.326 612.543 296.858" stroke="#FAFAFA" stroke-width="1.08419" stroke-miterlimit="10" stroke-linecap="round"/>
<path d="M436.281 192.96C434.217 185.811 430.526 179.237 425.499 173.752C419.557 167.272 412.608 161.795 404.92 157.532C395.992 152.475 386.5 148.488 376.639 145.655C365.776 142.52 354.632 140.456 343.367 139.494C331.73 138.431 320.021 138.431 308.385 139.494C297.125 140.456 285.986 142.52 275.129 145.655C265.262 148.486 255.764 152.472 246.832 157.532C239.144 161.832 232.2 167.346 226.268 173.859C221.245 179.348 217.556 185.921 215.486 193.068C213.645 199.679 213.645 206.667 215.486 213.277C217.539 220.426 221.231 226.998 226.268 232.47C232.204 238.99 239.153 244.509 246.848 248.814C255.768 253.869 265.256 257.85 275.113 260.674C285.976 263.823 297.119 265.908 308.385 266.897C320.022 267.945 331.73 267.945 343.367 266.897C354.639 265.904 365.787 263.814 376.654 260.659C386.511 257.835 395.999 253.854 404.92 248.798C412.617 244.497 419.567 238.978 425.499 232.455C430.529 226.977 434.22 220.407 436.281 213.262C438.124 206.62 438.124 199.602 436.281 192.96Z" fill="#37474F"/>
<path d="M214.1 192.991H437.652V204.389L214.1 203.758V192.991Z" fill="#37474F"/>
<path d="M308.387 129.281L325.855 192.96L275.131 135.504C285.986 132.348 297.125 130.264 308.387 129.281Z" fill="#455A64"/>
<path d="M343.367 129.281L325.899 192.96L308.432 129.251C320.054 128.201 331.747 128.211 343.367 129.281Z" fill="#455A64"/>
<path d="M376.636 135.504L325.896 192.96L343.364 129.25C354.633 130.243 365.776 132.338 376.636 135.504Z" fill="#455A64"/>
<path d="M425.485 163.692C430.51 169.186 434.199 175.764 436.268 182.916L325.916 192.959L425.485 163.692Z" fill="#455A64"/>
<path d="M436.283 182.932C438.108 189.54 438.108 196.519 436.283 203.126L325.916 192.96L436.283 182.932Z" fill="#455A64"/>
<path d="M436.283 203.126C434.219 210.275 430.528 216.849 425.5 222.335L325.916 193.068L436.283 203.126Z" fill="#455A64"/>
<path d="M425.498 222.335C419.565 228.853 412.615 234.367 404.919 238.663L325.883 192.96L425.498 222.335Z" fill="#455A64"/>
<path d="M325.898 193.037L376.653 250.539C365.785 253.676 354.636 255.739 343.366 256.7L325.883 192.991L325.898 193.037Z" fill="#455A64"/>
<path d="M325.883 193.053L343.366 256.762C331.73 257.825 320.021 257.825 308.385 256.762L325.883 193.053Z" fill="#455A64"/>
<path d="M325.852 193.038L308.354 256.747C297.083 255.786 285.934 253.722 275.066 250.586L325.852 193.038Z" fill="#455A64"/>
<path d="M325.854 193.038L275.022 250.539C265.166 247.704 255.679 243.717 246.756 238.663L325.854 193.038Z" fill="#455A64"/>
<path d="M325.838 192.96L226.253 222.227C221.219 216.747 217.527 210.171 215.471 203.019L325.838 192.96Z" fill="#455A64"/>
<path d="M325.838 192.96L215.486 203.126C213.645 196.52 213.645 189.537 215.486 182.932L325.838 192.96Z" fill="#455A64"/>
<path d="M325.836 192.96L215.484 182.871C217.557 175.721 221.247 169.144 226.267 163.647L325.836 192.96Z" fill="#455A64"/>
<path d="M246.831 147.396L325.837 192.96L226.268 163.693C232.201 157.19 239.145 151.687 246.831 147.396Z" fill="#455A64"/>
<path d="M404.917 147.396L325.896 192.96L376.636 135.473C386.502 138.315 395.995 142.317 404.917 147.396Z" fill="#455A64"/>
<path d="M404.921 147.396C412.611 151.683 419.555 157.186 425.485 163.693L325.916 192.96L404.921 147.396Z" fill="#455A64"/>
<path d="M325.851 192.96L246.8 238.601C239.106 234.302 232.157 228.788 226.221 222.274L325.805 193.007L325.851 192.96Z" fill="#455A64"/>
<path d="M275.127 135.505L325.851 192.96L246.83 147.335C255.761 142.285 265.259 138.314 275.127 135.505Z" fill="#455A64"/>
<path d="M325.896 193.038L404.917 238.663C395.994 243.717 386.507 247.704 376.651 250.539L325.896 193.038Z" fill="#455A64"/>
<path d="M258.277 128.696L321.047 164.925L317.966 113.708C294.876 114.694 275.268 119.623 258.277 128.696Z" fill="#0F79F4"/>
<path opacity="0.2" d="M258.277 128.696L321.047 164.925L317.966 113.708C294.876 114.694 275.268 119.623 258.277 128.696Z" fill="white"/>
<path d="M321.047 164.926V184.704L258.277 148.459V128.696L321.047 164.926Z" fill="#0F79F4"/>
<path opacity="0.1" d="M321.047 164.926V184.704L258.277 148.459V128.696L321.047 164.926Z" fill="black"/>
<path d="M402.424 133.779L330.381 166.281V186.044L402.424 153.542V133.779Z" fill="#0F79F4"/>
<path opacity="0.3" d="M402.424 133.779L330.381 166.281V186.044L402.424 153.542V133.779Z" fill="black"/>
<path d="M402.425 133.779C383.032 120.578 357.169 113.616 327.193 113.523L329.119 145.547L330.382 166.281L402.425 133.779Z" fill="#0F79F4"/>
<path opacity="0.1" d="M402.425 133.779C383.032 120.578 357.169 113.616 327.193 113.523L329.119 145.547L330.382 166.281L402.425 133.779Z" fill="black"/>
<path d="M327.178 113.523V133.286L330.382 186.043V166.281L327.178 113.523Z" fill="#263238"/>
<path d="M345.028 204.343L381.858 239.772C383.922 238.986 385.832 238.231 388.02 237.184C413.39 225.754 426.652 208.626 426.637 191.343V171.78C423.849 164.34 416.178 164.356 408.152 157.809L332.936 191.697L332.182 192.036L345.028 204.343Z" fill="#0F79F4"/>
<path opacity="0.6" d="M345.028 204.343L381.858 239.772C383.922 238.986 385.832 238.231 388.02 237.184C413.39 225.754 426.652 208.626 426.637 191.343V171.78C423.849 164.34 416.178 164.356 408.152 157.809L332.936 191.697L332.182 192.036L345.028 204.343Z" fill="white"/>
<path d="M345.031 184.58L381.861 220.008C383.925 219.223 385.835 218.468 388.022 217.405C430.49 198.227 438.993 163.107 408.186 137.984L332.97 171.872L332.215 172.211L345.031 184.58Z" fill="#0F79F4"/>
<path opacity="0.8" d="M345.031 184.58L381.861 220.008C383.925 219.223 385.835 218.468 388.022 217.405C430.49 198.227 438.993 163.107 408.186 137.984L332.97 171.872L332.215 172.211L345.031 184.58Z" fill="white"/>
<path d="M381.8 239.741V219.963L332.139 172.258V192.02L381.8 239.741Z" fill="#0F79F4"/>
<path opacity="0.6" d="M381.8 239.741V219.963L332.139 172.258V192.02L381.8 239.741Z" fill="white"/>
<path d="M251.746 152.233C241.164 158.903 229.411 163.108 225.129 171.21V190.988C225.129 201.293 229.919 211.737 239.855 221.287C253.718 234.581 275.668 243.977 301.747 247.72C325.881 251.283 350.503 249.489 373.866 242.467V222.704L341.442 211.306L322.403 192.96L251.746 152.233Z" fill="#0F79F4"/>
<path opacity="0.6" d="M251.746 152.233C241.164 158.903 229.411 163.108 225.129 171.21V190.988C225.129 201.293 229.919 211.737 239.855 221.287C253.718 234.581 275.668 243.977 301.747 247.72C325.881 251.283 350.503 249.489 373.866 242.467V222.704L341.442 211.306L322.403 192.96L251.746 152.233Z" fill="black"/>
<path d="M251.747 132.47C221.34 151.601 216.442 179.02 239.855 201.509C253.719 214.818 275.669 224.198 301.747 227.957C325.882 231.511 350.502 229.718 373.867 222.704L341.442 191.543L322.403 173.259L251.747 132.47Z" fill="#0F79F4"/>
<path opacity="0.3" d="M251.747 132.47C221.34 151.601 216.442 179.02 239.855 201.509C253.719 214.818 275.669 224.198 301.747 227.957C325.882 231.511 350.502 229.718 373.867 222.704L341.442 191.543L322.403 173.259L251.747 132.47Z" fill="black"/>
<path d="M604.567 347.998C602.502 340.849 598.812 334.275 593.784 328.789C587.855 322.273 580.911 316.759 573.22 312.462C564.293 307.405 554.801 303.418 544.939 300.585C534.077 297.45 522.933 295.386 511.667 294.424C500.031 293.361 488.322 293.361 476.686 294.424C465.426 295.388 454.287 297.451 443.429 300.585C433.568 303.418 424.076 307.405 415.148 312.462C407.452 316.758 400.502 322.272 394.569 328.789C389.546 334.278 385.857 340.851 383.787 347.998C381.946 354.609 381.946 361.596 383.787 368.207C385.84 375.356 389.532 381.928 394.569 387.4C400.505 393.92 407.454 399.439 415.148 403.743C424.072 408.794 433.559 412.775 443.414 415.604C454.284 418.732 465.432 420.796 476.701 421.766C488.338 422.813 500.046 422.813 511.683 421.766C522.952 420.797 534.101 418.734 544.97 415.604C554.83 412.782 564.319 408.795 573.236 403.728C580.937 399.433 587.892 393.919 593.83 387.4C598.857 381.92 602.547 375.351 604.613 368.207C606.431 361.591 606.415 354.605 604.567 347.998Z" fill="#37474F"/>
<path d="M382.385 347.982H605.938V359.381L382.385 358.749V347.982Z" fill="#37474F"/>
<path d="M476.67 284.273L494.154 347.983L443.414 290.496C454.27 287.341 465.408 285.257 476.67 284.273Z" fill="#455A64"/>
<path d="M511.652 284.272L494.184 347.982L476.701 284.272C488.327 283.211 500.026 283.211 511.652 284.272Z" fill="#455A64"/>
<path d="M544.925 290.496L494.186 347.983L511.653 284.273C522.921 285.256 534.064 287.34 544.925 290.496Z" fill="#455A64"/>
<path d="M593.768 318.7C598.796 324.191 602.486 330.77 604.551 337.923L494.199 348.013L593.768 318.7Z" fill="#455A64"/>
<path d="M604.564 337.924C606.397 344.531 606.397 351.512 604.564 358.118L494.213 348.013L604.564 337.924Z" fill="#455A64"/>
<path d="M604.566 358.118C602.497 365.265 598.807 371.838 593.784 377.326L494.199 348.06L604.566 358.118Z" fill="#455A64"/>
<path d="M593.797 377.326C587.851 383.837 580.897 389.35 573.202 393.654L494.166 348.013L593.797 377.326Z" fill="#455A64"/>
<path d="M494.181 348.028L544.936 405.53C534.067 408.66 522.919 410.723 511.649 411.692L494.166 347.982L494.181 348.028Z" fill="#455A64"/>
<path d="M494.168 348.043L511.652 411.691C500.015 412.746 488.307 412.746 476.67 411.691L494.168 348.043Z" fill="#455A64"/>
<path d="M494.151 348.029L476.668 411.692C465.399 410.722 454.251 408.659 443.381 405.531L494.151 348.029Z" fill="#455A64"/>
<path d="M494.156 348.029L443.324 405.531C433.471 402.689 423.984 398.703 415.059 393.654L494.156 348.029Z" fill="#455A64"/>
<path d="M494.121 348.013L394.536 377.28C389.502 371.8 385.81 365.224 383.754 358.072L494.121 348.013Z" fill="#455A64"/>
<path d="M494.121 348.013L383.769 358.118C381.929 351.513 381.929 344.53 383.769 337.924L494.121 348.013Z" fill="#455A64"/>
<path d="M494.123 347.997L383.771 337.908C385.841 330.757 389.53 324.179 394.554 318.684L494.123 347.997Z" fill="#455A64"/>
<path d="M415.132 302.326L494.122 347.936L394.553 318.669C400.485 312.146 407.435 306.626 415.132 302.326Z" fill="#455A64"/>
<path d="M573.206 302.325L494.186 347.936L544.925 290.449C554.789 293.276 564.282 297.262 573.206 302.325Z" fill="#455A64"/>
<path d="M573.203 302.326C580.893 306.617 587.838 312.126 593.767 318.638L494.213 347.905L573.203 302.326Z" fill="#455A64"/>
<path d="M494.152 347.997L415.116 393.654C407.426 389.349 400.477 383.836 394.537 377.326L494.122 348.059L494.152 347.997Z" fill="#455A64"/>
<path d="M443.414 290.496L494.153 347.982L415.133 302.326C424.059 297.279 433.552 293.308 443.414 290.496Z" fill="#455A64"/>
<path d="M494.186 348.029L573.206 393.654C564.283 398.709 554.796 402.695 544.941 405.531L494.186 348.029Z" fill="#455A64"/>
<path d="M395.691 322.982V354.991C394.88 352.066 394.466 349.045 394.459 346.01V322.982H395.691Z" fill="#0F79F4"/>
<path opacity="0.3" d="M395.691 322.982V354.991C394.88 352.066 394.466 349.045 394.459 346.01V322.982H395.691Z" fill="black"/>
<path d="M494.123 323.013L395.694 332.008C394.06 326.117 394.06 319.893 395.694 314.001L494.123 323.013Z" fill="#0F79F4"/>
<path d="M494.124 322.982L395.695 313.971C397.545 307.593 400.839 301.726 405.323 296.827L494.124 322.982Z" fill="#0F79F4"/>
<path d="M423.668 282.301L494.124 322.982L405.322 296.796C410.619 291.01 416.814 286.116 423.668 282.301Z" fill="#0F79F4"/>
<path d="M448.897 271.703L494.153 322.967L423.666 282.301C431.628 277.784 440.098 274.227 448.897 271.703Z" fill="#0F79F4"/>
<path d="M478.564 266.158L494.152 322.966L448.896 271.703C458.58 268.886 468.517 267.029 478.564 266.158Z" fill="#0F79F4"/>
<path d="M509.85 266.158L494.184 322.966L478.596 266.158C488.992 265.2 499.454 265.2 509.85 266.158Z" fill="#0F79F4"/>
<path d="M539.441 271.703L494.186 322.967L509.851 266.158C519.872 267.034 529.783 268.891 539.441 271.703Z" fill="#0F79F4"/>
<g opacity="0.2">
<path d="M494.125 323.012L395.696 332.008C394.062 326.117 394.062 319.892 395.696 314.001L494.125 323.012Z" fill="white"/>
<path d="M494.124 322.982L395.695 313.971C397.545 307.593 400.839 301.726 405.323 296.827L494.124 322.982Z" fill="white"/>
<path d="M423.668 282.3L494.124 322.981L405.322 296.795C410.619 291.01 416.814 286.115 423.668 282.3Z" fill="white"/>
<path d="M448.901 271.703L494.157 322.966L423.67 282.3C431.632 277.784 440.102 274.226 448.901 271.703Z" fill="white"/>
<path d="M478.568 266.158L494.156 322.967L448.9 271.703C458.584 268.886 468.521 267.029 478.568 266.158Z" fill="white"/>
<path d="M509.854 266.158L494.188 322.966L478.6 266.158C488.996 265.2 499.458 265.2 509.854 266.158Z" fill="white"/>
<path d="M539.441 271.703L494.186 322.967L509.851 266.158C519.872 267.034 529.783 268.891 539.441 271.703Z" fill="white"/>
</g>
<path d="M577.626 338.355L562.854 352.218L551.624 362.832L540.919 372.906L539.486 374.246V397.243C548.284 394.722 556.753 391.17 564.717 386.661C571.579 382.813 577.779 377.888 583.079 372.074C587.56 367.19 590.845 361.331 592.675 354.96C593.491 352.036 593.911 349.016 593.923 345.98V322.998L577.626 338.355Z" fill="#0F79F4"/>
<path opacity="0.3" d="M577.626 338.355L562.854 352.218L551.624 362.832L540.919 372.906L539.486 374.246V397.243C548.284 394.722 556.753 391.17 564.717 386.661C571.579 382.813 577.779 377.888 583.079 372.074C587.56 367.19 590.845 361.331 592.675 354.96C593.491 352.036 593.911 349.016 593.923 345.98V322.998L577.626 338.355Z" fill="black"/>
<path d="M583.017 296.858C587.494 301.761 590.787 307.626 592.644 314.002L494.199 323.013L583.017 296.858Z" fill="#0F79F4"/>
<path d="M593.876 323.028C593.864 326.069 593.444 329.094 592.628 332.024L562.807 329.282L494.199 322.997L577.579 315.296L592.628 313.925C593.453 316.889 593.872 319.951 593.876 323.028Z" fill="#0F79F4"/>
<path d="M592.628 332.024C590.795 338.394 587.51 344.252 583.032 349.138L551.578 339.896L494.199 322.952L562.807 329.236L592.628 332.024Z" fill="#0F79F4"/>
<path d="M583.03 349.137C577.73 354.952 571.531 359.877 564.669 363.725L540.87 349.954L494.213 323.028L551.591 339.972L583.03 349.137Z" fill="#0F79F4"/>
<path d="M564.673 282.301L494.186 322.997L539.441 271.734C548.237 274.253 556.706 277.8 564.673 282.301Z" fill="#0F79F4"/>
<path d="M564.671 282.301C571.527 286.139 577.721 291.054 583.017 296.857L494.199 323.044L564.671 282.301Z" fill="#0F79F4"/>
<path d="M564.669 363.725C556.704 368.229 548.235 371.775 539.438 374.292L494.213 323.028L540.87 349.954L564.669 363.725Z" fill="#0F79F4"/>
<g opacity="0.2">
<path d="M583.017 296.858C587.494 301.761 590.787 307.626 592.644 314.002L494.199 323.013L583.017 296.858Z" fill="white"/>
<path d="M593.876 323.028C593.864 326.069 593.444 329.095 592.628 332.024L562.807 329.282L494.199 322.998L577.579 315.296L592.628 313.925C593.453 316.889 593.872 319.951 593.876 323.028Z" fill="white"/>
<path d="M592.628 332.024C590.795 338.394 587.51 344.252 583.032 349.138L551.578 339.896L494.199 322.952L562.807 329.236L592.628 332.024Z" fill="white"/>
<path d="M583.036 349.137C577.736 354.952 571.537 359.877 564.675 363.725L540.876 349.954L494.219 323.028L551.597 339.972L583.036 349.137Z" fill="white"/>
<path d="M564.671 282.301L494.184 322.997L539.439 271.734C548.236 274.254 556.704 277.8 564.671 282.301Z" fill="white"/>
<path d="M564.671 282.301C571.527 286.139 577.721 291.054 583.017 296.857L494.199 323.044L564.671 282.301Z" fill="white"/>
<path d="M564.675 363.725C556.71 368.229 548.241 371.775 539.444 374.292L494.219 323.028L540.876 349.954L564.675 363.725Z" fill="white"/>
</g>
<path d="M539.454 374.307V397.305L494.152 345.98V322.967L539.454 374.307Z" fill="#263238"/>
<path d="M494.155 345.98L395.695 355.022V332.009L494.155 322.967V345.98Z" fill="#0F79F4"/>
<path opacity="0.1" d="M494.155 345.98L395.695 355.022V332.009L494.155 322.967V345.98Z" fill="black"/>
<path d="M268.01 347.997C265.946 340.849 262.255 334.275 257.228 328.789C251.297 322.275 244.353 316.762 236.664 312.461C227.733 307.402 218.235 303.415 208.368 300.585C197.51 297.45 186.371 295.386 175.111 294.424C163.475 293.361 151.766 293.361 140.129 294.424C128.864 295.387 117.721 297.451 106.858 300.585C96.9858 303.416 87.4827 307.402 78.5457 312.461C70.855 316.759 63.9106 322.273 57.9819 328.789C52.9545 334.275 49.2641 340.849 47.1993 347.997C45.3737 354.61 45.3737 361.594 47.1993 368.207C49.2606 375.353 52.9516 381.922 57.9819 387.4C63.9094 393.922 70.8539 399.441 78.5457 403.743C87.4663 408.799 96.9543 412.78 106.811 415.604C117.681 418.733 128.829 420.797 140.099 421.765C151.736 422.813 163.443 422.813 175.08 421.765C186.35 420.797 197.498 418.733 208.368 415.604C218.227 412.782 227.716 408.795 236.633 403.728C244.336 399.435 251.291 393.92 257.228 387.4C262.258 381.922 265.949 375.353 268.01 368.207C269.836 361.594 269.836 354.61 268.01 347.997Z" fill="#37474F"/>
<path d="M45.8145 347.982H269.367V359.381L45.8145 358.749V347.982Z" fill="#37474F"/>
<path d="M140.161 284.273L157.628 347.983L106.889 290.496C117.75 287.341 128.893 285.257 140.161 284.273Z" fill="#455A64"/>
<path d="M175.082 284.272L157.614 347.982L140.162 284.272C151.778 283.213 163.466 283.213 175.082 284.272Z" fill="#455A64"/>
<path d="M208.337 290.496L157.613 347.983L175.081 284.273C186.343 285.256 197.482 287.34 208.337 290.496Z" fill="#455A64"/>
<path d="M257.229 318.7C262.257 324.191 265.947 330.77 268.012 337.923L157.645 348.013L257.229 318.7Z" fill="#455A64"/>
<path d="M268.012 337.924C269.837 344.532 269.837 351.511 268.012 358.118L157.645 348.013L268.012 337.924Z" fill="#455A64"/>
<path d="M268.012 358.118C265.947 365.267 262.257 371.841 257.229 377.326L157.645 348.06L268.012 358.118Z" fill="#455A64"/>
<path d="M257.228 377.326C251.288 383.836 244.34 389.349 236.649 393.654L157.598 348.013L257.228 377.326Z" fill="#455A64"/>
<path d="M157.613 348.028L208.368 405.53C197.498 408.659 186.35 410.723 175.081 411.691L157.582 347.982L157.613 348.028Z" fill="#455A64"/>
<path d="M157.584 348.043L175.082 411.691C163.466 412.743 151.778 412.743 140.162 411.691L157.584 348.043Z" fill="#455A64"/>
<path d="M157.568 348.029L140.162 411.692C128.893 410.724 117.744 408.66 106.875 405.531L157.568 348.029Z" fill="#455A64"/>
<path d="M157.569 348.029L106.737 405.531C96.9087 402.689 87.4477 398.703 78.5488 393.654L157.569 348.029Z" fill="#455A64"/>
<path d="M157.553 348.013L57.9681 377.28C52.9403 371.795 49.2498 365.221 47.1855 358.072L157.553 348.013Z" fill="#455A64"/>
<path d="M157.552 348.013L47.1853 358.118C45.3601 351.511 45.3601 344.532 47.1853 337.924L157.552 348.013Z" fill="#455A64"/>
<path d="M157.553 347.997L47.1855 337.908C49.2502 330.755 52.9405 324.176 57.9681 318.684L157.553 347.997Z" fill="#455A64"/>
<path d="M78.5482 302.326L157.553 347.936L57.9844 318.669C63.9108 312.146 70.8555 306.626 78.5482 302.326Z" fill="#455A64"/>
<path d="M236.634 302.325L157.613 347.936L208.337 290.449C218.207 293.273 227.706 297.26 236.634 302.325Z" fill="#455A64"/>
<path d="M236.635 302.326C244.338 306.637 251.293 312.167 257.229 318.7L157.66 347.967L236.635 302.326Z" fill="#455A64"/>
<path d="M157.569 347.997L78.548 393.654C70.8548 389.353 63.9058 383.84 57.9688 377.326L157.553 348.059L157.569 347.997Z" fill="#455A64"/>
<path d="M106.83 290.496L157.569 347.982L78.5488 302.326C87.4752 297.279 96.9685 293.308 106.83 290.496Z" fill="#455A64"/>
<path d="M157.613 348.029L236.634 393.654C227.711 398.709 218.223 402.695 208.368 405.531L157.613 348.029Z" fill="#455A64"/>
<path d="M187.313 308.487L200.052 294.039C200.052 277.095 179.349 276.679 170.2 275.862C161.05 275.046 145.354 269.793 145.354 289.079L149.728 305.037C162.36 304.225 175.04 305.389 187.313 308.487Z" fill="#0F79F4"/>
<path opacity="0.6" d="M187.313 308.487L200.052 294.039C200.052 277.095 179.349 276.679 170.2 275.862C161.05 275.046 145.354 269.793 145.354 289.079L149.728 305.037C162.36 304.225 175.04 305.389 187.313 308.487Z" fill="white"/>
<path d="M187.313 285.797L200.052 271.364C182.215 266.722 163.735 265.046 145.354 266.404L149.728 282.301C162.362 281.504 175.043 282.684 187.313 285.797Z" fill="#0F79F4"/>
<path opacity="0.8" d="M187.313 285.797L200.052 271.364C182.215 266.722 163.735 265.046 145.354 266.404L149.728 282.301C162.362 281.504 175.043 282.684 187.313 285.797Z" fill="white"/>
<path d="M149.728 282.362V305.067L145.354 289.109V266.404L149.728 282.362Z" fill="#0F79F4"/>
<path d="M200.051 271.364L187.312 285.797V308.518L200.051 294.069V271.364Z" fill="#0F79F4"/>
<g opacity="0.6">
<path d="M149.726 282.363V305.068L145.352 289.11V266.405L149.726 282.363Z" fill="white"/>
<path d="M200.047 271.365L187.309 285.798V308.518L200.047 294.07V271.365Z" fill="white"/>
</g>
<path d="M193.537 287.631V310.336C198.852 312.052 203.982 314.296 208.848 317.036C213.095 319.448 216.997 322.422 220.447 325.878L245.432 318.53C240.464 313.46 234.807 309.114 228.627 305.622C221.803 301.71 214.501 285.844 193.537 287.631Z" fill="#0F79F4"/>
<path opacity="0.6" d="M193.537 287.631V310.336C198.852 312.052 203.982 314.296 208.848 317.036C213.095 319.448 216.997 322.422 220.447 325.878L245.432 318.53C240.464 313.46 234.807 309.114 228.627 305.622C221.803 301.71 214.501 285.844 193.537 287.631Z" fill="black"/>
<path d="M206.276 273.213L193.537 287.631C198.857 289.333 203.988 291.579 208.848 294.331C213.095 296.743 216.997 299.717 220.447 303.173L245.432 295.825C240.472 290.746 234.814 286.399 228.627 282.917C221.545 278.892 214.052 275.639 206.276 273.213Z" fill="#0F79F4"/>
<path opacity="0.3" d="M206.276 273.213L193.537 287.631C198.857 289.333 203.988 291.579 208.848 294.331C213.095 296.743 216.997 299.717 220.447 303.173L245.432 295.825C240.472 290.746 234.814 286.399 228.627 282.917C221.545 278.892 214.052 275.639 206.276 273.213Z" fill="black"/>
<path d="M220.445 303.173L245.43 295.81V318.53L220.445 325.877V303.173Z" fill="#0F79F4"/>
<path opacity="0.6" d="M220.445 303.173L245.43 295.81V318.53L220.445 325.877V303.173Z" fill="black"/>
<path d="M257.967 323.32H249.526C249.218 322.92 248.956 322.519 248.648 322.119L223.633 306.715V329.436C228.962 336.29 230.98 343.776 229.594 351.124L257.228 353.696C257.696 351.405 257.928 349.072 257.921 346.734L257.967 323.32Z" fill="#0F79F4"/>
<path opacity="0.6" d="M257.967 323.32H249.526C249.218 322.92 248.956 322.519 248.648 322.119L223.633 306.715V329.436C228.962 336.29 230.98 343.776 229.594 351.124L257.228 353.696C257.696 351.405 257.928 349.072 257.921 346.734L257.967 323.32Z" fill="black"/>
<path d="M229.58 328.512L257.23 330.992C259.479 320.317 256.629 309.334 248.635 299.415L223.619 306.762C228.949 313.617 231.044 321.118 229.58 328.512Z" fill="#0F79F4"/>
<path opacity="0.3" d="M229.58 328.512L257.23 330.992C259.479 320.317 256.629 309.334 248.635 299.415L223.619 306.762C228.949 313.617 231.044 321.118 229.58 328.512Z" fill="black"/>
<path d="M257.23 330.992V353.712L229.58 351.171V328.466L257.23 330.992Z" fill="#0F79F4"/>
<path opacity="0.6" d="M257.23 330.992V353.712L229.58 351.171V328.466L257.23 330.992Z" fill="black"/>
<path d="M142.828 305.715V282.994C127.424 275.893 98.7427 283.102 89.1309 304.251L108.909 315.681C119.533 310.368 131.019 306.993 142.828 305.715Z" fill="#0F79F4"/>
<path opacity="0.3" d="M142.828 305.715V282.994C127.424 275.893 98.7427 283.102 89.1309 304.251L108.909 315.681C119.533 310.368 131.019 306.993 142.828 305.715Z" fill="black"/>
<path d="M142.826 282.995L138.436 266.99C119.813 269.085 102.761 274.215 89.1445 281.547L108.923 292.961C119.541 287.649 131.022 284.274 142.826 282.995Z" fill="#0F79F4"/>
<path opacity="0.1" d="M142.826 282.995L138.436 266.99C119.813 269.085 102.761 274.215 89.1445 281.547L108.923 292.961C119.541 287.649 131.022 284.274 142.826 282.995Z" fill="black"/>
<path d="M108.909 292.96V315.681L89.1309 304.251V281.546L108.909 292.96Z" fill="#263238"/>
<path d="M88.2209 295.825L84.1543 307.085C70.861 315.311 62.466 325.216 59.0156 335.582L86.7422 338.108C89.2837 331.007 95.0755 324.245 104.04 318.546V295.825H88.2209Z" fill="#0F79F4"/>
<path opacity="0.3" d="M88.2209 295.825L84.1543 307.085C70.861 315.311 62.466 325.216 59.0156 335.582L86.7422 338.108C89.2837 331.007 95.0755 324.245 104.04 318.546V295.825H88.2209Z" fill="black"/>
<path d="M103.979 295.826L84.1543 284.381C70.861 292.591 62.466 302.511 59.0156 312.862L86.7422 315.404C89.2221 308.302 95.0139 301.525 103.979 295.826Z" fill="#0F79F4"/>
<path opacity="0.1" d="M103.979 295.826L84.1543 284.381C70.861 292.591 62.466 302.511 59.0156 312.862L86.7422 315.404C89.2221 308.302 95.0139 301.525 103.979 295.826Z" fill="black"/>
<path d="M59.0176 312.862V335.583L86.6825 338.109V315.404L59.0176 312.862Z" fill="#263238"/>
<path d="M85.5844 342.098V319.378L77.3589 318.638L57.2109 323.891V346.58C57.34 355.596 60.6083 364.284 66.4531 371.149L91.4686 363.802C86.2468 356.947 84.2135 349.445 85.5844 342.098Z" fill="#0F79F4"/>
<path opacity="0.3" d="M85.5844 342.098V319.378L77.3589 318.638L57.2109 323.891V346.58C57.34 355.596 60.6083 364.284 66.4531 371.149L91.4686 363.802C86.2468 356.947 84.2135 349.445 85.5844 342.098Z" fill="black"/>
<path d="M66.5469 348.444L91.5624 341.081V363.801L66.5469 371.149V348.444Z" fill="#263238"/>
<path d="M85.6028 319.378L57.8763 316.852C55.6274 327.542 58.477 338.509 66.4715 348.444L91.487 341.081C86.2498 334.227 84.2165 326.725 85.6028 319.378Z" fill="#0F79F4"/>
<path opacity="0.1" d="M85.6028 319.378L57.8763 316.852C55.6274 327.542 58.477 338.509 66.4715 348.444L91.487 341.081C86.2498 334.227 84.2165 326.725 85.6028 319.378Z" fill="black"/>
<path d="M115.195 371.118C103.473 364.356 97.6191 355.499 97.6191 346.642V323.891H217.567V346.596C217.567 355.468 211.714 364.325 199.992 371.088C176.578 384.643 138.624 384.643 115.195 371.118Z" fill="#37474F"/>
<path d="M157.599 358.549C190.718 358.549 217.565 343.046 217.565 323.922C217.565 304.798 190.718 289.294 157.599 289.294C124.481 289.294 97.6328 304.798 97.6328 323.922C97.6328 343.046 124.481 358.549 157.599 358.549Z" fill="#455A64"/>
<path d="M108.908 377.619V374.723L69.7363 352.033V374.723C74.7058 379.798 80.3689 384.144 86.5571 387.631C93.6389 391.656 101.132 394.909 108.908 397.335L121.631 382.917C117.255 381.493 113.001 379.721 108.908 377.619Z" fill="#0F79F4"/>
<path opacity="0.3" d="M108.908 377.619V374.723L69.7363 352.033V374.723C74.7058 379.798 80.3689 384.144 86.5571 387.631C93.6389 391.656 101.132 394.909 108.908 397.335L121.631 382.917C117.255 381.493 113.001 379.721 108.908 377.619Z" fill="black"/>
<path d="M106.273 353.512C102.021 351.107 98.1143 348.138 94.6585 344.686L69.6738 352.033C74.6472 357.104 80.3097 361.449 86.4946 364.942C93.5795 368.96 101.072 372.213 108.845 374.646L121.569 360.213C116.254 358.51 111.128 356.265 106.273 353.512Z" fill="#0F79F4"/>
<path opacity="0.1" d="M106.273 353.512C102.021 351.107 98.1143 348.138 94.6585 344.686L69.6738 352.033C74.6472 357.104 80.3097 361.449 86.4946 364.942C93.5795 368.96 101.072 372.213 108.845 374.646L121.569 360.213C116.254 358.51 111.128 356.265 106.273 353.512Z" fill="black"/>
<path d="M108.91 397.351V374.646L121.634 360.213V382.933L108.91 397.351Z" fill="#263238"/>
<path d="M115.131 376.479V399.2C132.968 403.842 151.448 405.517 169.829 404.16V381.455L115.131 376.479Z" fill="#0F79F4"/>
<path opacity="0.1" d="M115.131 376.479V399.2C132.968 403.842 151.448 405.517 169.829 404.16V381.455L115.131 376.479Z" fill="black"/>
<path d="M127.838 362.046L115.1 376.479C132.937 381.119 151.416 382.8 169.798 381.454L165.454 365.481C152.813 366.301 140.122 365.142 127.838 362.046Z" fill="#0F79F4"/>
<path opacity="0.2" d="M127.838 362.046L115.1 376.479C132.937 381.119 151.416 382.8 169.798 381.454L165.454 365.481C152.813 366.301 140.122 365.142 127.838 362.046Z" fill="white"/>
<path d="M211.205 374.724L231.045 386.184C244.338 377.974 252.733 368.054 256.184 357.687V334.982L228.457 355.161C225.962 362.262 220.17 369.04 211.205 374.724Z" fill="#0F79F4"/>
<path opacity="0.1" d="M211.205 374.724L231.045 386.184C244.338 377.974 252.733 368.054 256.184 357.687V334.982L228.457 355.161C225.962 362.262 220.17 369.04 211.205 374.724Z" fill="black"/>
<path d="M211.205 352.018L231.045 363.478C244.338 355.253 252.733 345.348 256.184 334.982L228.457 332.456C225.962 339.557 220.17 346.319 211.205 352.018Z" fill="#0F79F4"/>
<path opacity="0.2" d="M211.205 352.018L231.045 363.478C244.338 355.253 252.733 345.348 256.184 334.982L228.457 332.456C225.962 339.557 220.17 346.319 211.205 352.018Z" fill="white"/>
<path d="M231.03 363.478V386.183L211.205 374.738V352.018L231.03 363.478Z" fill="#0F79F4"/>
<path opacity="0.3" d="M231.03 363.478V386.183L211.205 374.738V352.018L231.03 363.478Z" fill="black"/>
<path d="M176.747 380.884V387.046C175.284 387.277 173.836 387.477 172.357 387.646L176.747 403.635C194.693 401.633 211.852 396.781 226.039 389.11V366.328L176.747 380.884Z" fill="#0F79F4"/>
<path opacity="0.1" d="M176.747 380.884V387.046C175.284 387.277 173.836 387.477 172.357 387.646L176.747 403.635C194.693 401.633 211.852 396.781 226.039 389.11V366.328L176.747 380.884Z" fill="black"/>
<path d="M172.357 364.864L176.747 380.884C194.693 378.882 211.852 374.045 226.039 366.374L206.215 354.914C195.618 360.237 184.149 363.607 172.357 364.864Z" fill="#0F79F4"/>
<path opacity="0.2" d="M172.357 364.864L176.747 380.884C194.693 378.882 211.852 374.045 226.039 366.374L206.215 354.914C195.618 360.237 184.149 363.607 172.357 364.864Z" fill="white"/>
<path d="M176.747 380.838V403.543L172.357 387.585V364.865L176.747 380.838Z" fill="#0F79F4"/>
<path opacity="0.3" d="M176.747 380.838V403.543L172.357 387.585V364.865L176.747 380.838Z" fill="black"/>
<path d="M561.158 228.912C561.103 227.911 560.814 226.936 560.313 226.066C559.813 225.197 559.116 224.457 558.277 223.906L516.564 199.83C515.024 198.906 513.684 199.661 513.684 201.509V241.821C513.736 242.823 514.024 243.799 514.525 244.668C515.025 245.538 515.724 246.278 516.564 246.827L534.032 256.901L539.546 279.221C539.528 279.629 539.673 280.028 539.948 280.33C540.224 280.632 540.609 280.812 541.017 280.83C541.426 280.849 541.825 280.704 542.127 280.428C542.429 280.152 542.609 279.768 542.627 279.359L547.679 264.772L558.354 270.933C559.894 271.858 561.235 271.103 561.235 269.27L561.158 228.912Z" fill="#0A69D7"/>
<path opacity="0.5" d="M561.158 228.912C561.103 227.911 560.814 226.936 560.313 226.066C559.813 225.197 559.116 224.457 558.277 223.906L516.564 199.83C515.024 198.906 513.684 199.661 513.684 201.509V241.821C513.736 242.823 514.024 243.799 514.525 244.668C515.025 245.538 515.724 246.278 516.564 246.827L534.032 256.901L539.546 279.221C539.528 279.629 539.673 280.028 539.948 280.33C540.224 280.632 540.609 280.812 541.017 280.83C541.426 280.849 541.825 280.704 542.127 280.428C542.429 280.152 542.609 279.768 542.627 279.359L547.679 264.772L558.354 270.933C559.894 271.858 561.235 271.103 561.235 269.27L561.158 228.912Z" fill="white"/>
<path d="M529.49 218.192C530.341 218.676 531.128 219.266 531.831 219.948C532.46 220.56 533.022 221.236 533.51 221.965C533.933 222.611 534.279 223.304 534.542 224.029C534.759 224.647 534.899 225.288 534.958 225.94C534.958 226.602 535.035 227.295 535.035 228.019C535.035 228.743 535.035 229.405 534.958 230.022C534.92 230.518 534.779 231.001 534.542 231.439C534.311 231.843 533.946 232.154 533.51 232.317C532.96 232.467 532.38 232.467 531.831 232.317C531.002 232.125 530.211 231.797 529.49 231.346C528.634 230.867 527.842 230.282 527.133 229.606C526.502 229.011 525.943 228.344 525.469 227.619C524.664 226.428 524.161 225.058 524.006 223.629C524.006 222.967 524.006 222.273 524.006 221.55C524.006 220.826 524.006 220.163 524.006 219.562C524.053 219.061 524.2 218.574 524.437 218.13C524.66 217.719 525.028 217.406 525.469 217.252C526.008 217.082 526.581 217.056 527.133 217.175C527.972 217.372 528.77 217.716 529.49 218.192ZM544.215 227.572C544.373 227.457 544.56 227.387 544.755 227.372C545.035 227.39 545.305 227.481 545.54 227.634L547.743 228.912C547.995 229.056 548.216 229.25 548.39 229.482C548.534 229.68 548.615 229.916 548.621 230.16C548.627 230.211 548.627 230.263 548.621 230.314C548.594 230.371 548.557 230.423 548.513 230.468L530.368 243.869C530.209 243.987 530.024 244.061 529.828 244.085C529.546 244.067 529.274 243.971 529.043 243.808L526.84 242.545C526.584 242.399 526.363 242.2 526.193 241.959C526.045 241.769 525.959 241.538 525.947 241.297C525.935 241.241 525.935 241.183 525.947 241.128C525.968 241.067 526.005 241.014 526.055 240.973L544.215 227.572ZM531.43 227.572C531.452 227.347 531.452 227.12 531.43 226.895V224.908C531.451 224.667 531.451 224.424 531.43 224.184C531.38 223.642 531.218 223.118 530.953 222.643C530.598 222.066 530.092 221.598 529.49 221.288C528.781 220.872 528.288 220.764 527.949 220.949C527.804 221.066 527.685 221.213 527.603 221.381C527.52 221.549 527.476 221.732 527.472 221.919C527.472 222.058 527.472 222.273 527.472 222.597C527.472 222.92 527.472 223.229 527.472 223.567C527.472 223.906 527.472 224.245 527.472 224.569C527.472 224.892 527.472 225.139 527.472 225.308C527.529 225.848 527.691 226.371 527.949 226.848C528.327 227.434 528.86 227.904 529.49 228.204C530.198 228.62 530.691 228.728 530.953 228.543C531.092 228.431 531.206 228.291 531.285 228.131C531.365 227.972 531.409 227.797 531.415 227.619L531.43 227.572ZM545.386 240.219C546.242 240.703 547.034 241.293 547.743 241.975C548.367 242.586 548.925 243.263 549.406 243.993C549.841 244.631 550.188 245.326 550.438 246.057C550.653 246.675 550.797 247.316 550.87 247.967C550.87 248.629 550.87 249.322 550.87 250.046C550.87 250.77 550.87 251.433 550.87 252.049C550.822 252.545 550.676 253.027 550.438 253.466C550.333 253.673 550.188 253.858 550.011 254.008C549.833 254.159 549.628 254.273 549.406 254.344C548.863 254.503 548.286 254.503 547.743 254.344C546.909 254.152 546.113 253.824 545.386 253.373C544.535 252.894 543.749 252.309 543.045 251.633C542.413 251.035 541.85 250.368 541.366 249.646C540.94 249.002 540.593 248.309 540.334 247.582C540.118 246.964 539.979 246.323 539.918 245.672C539.918 244.994 539.918 244.301 539.918 243.577C539.918 242.853 539.918 242.19 539.918 241.59C539.953 241.088 540.095 240.6 540.334 240.157C540.56 239.749 540.927 239.437 541.366 239.279C541.917 239.143 542.493 239.143 543.045 239.279C543.877 239.467 544.67 239.801 545.386 240.265V240.219ZM547.342 249.646C547.355 249.42 547.355 249.194 547.342 248.968V247.027C547.342 246.719 547.342 246.473 547.342 246.319C547.278 245.78 547.116 245.258 546.865 244.778C546.482 244.196 545.95 243.728 545.324 243.423C544.616 243.007 544.123 242.899 543.861 243.084C543.715 243.201 543.597 243.348 543.515 243.516C543.432 243.684 543.387 243.867 543.384 244.054C543.368 244.28 543.368 244.506 543.384 244.732C543.384 245.04 543.384 245.364 543.384 245.702C543.384 246.041 543.384 246.38 543.384 246.719C543.369 246.96 543.369 247.202 543.384 247.443C543.431 247.985 543.594 248.51 543.861 248.983C544.212 249.564 544.719 250.034 545.324 250.339C546.033 250.755 546.526 250.863 546.865 250.678C547.009 250.556 547.127 250.406 547.209 250.236C547.291 250.066 547.337 249.881 547.342 249.692V249.646Z" fill="#FAFAFA"/>
<path d="M380.704 74.3527C380.649 73.3513 380.359 72.377 379.859 71.5076C379.358 70.6383 378.662 69.8982 377.824 69.3465L336.111 45.2861C334.571 44.3619 333.23 45.1012 333.23 46.9497V87.261C333.284 88.265 333.573 89.2425 334.073 90.1146C334.573 90.9868 335.271 91.7294 336.111 92.2825L353.579 102.357L359.093 124.63C359.154 124.975 359.33 125.289 359.593 125.521C359.856 125.752 360.19 125.887 360.539 125.903C360.889 125.92 361.234 125.816 361.517 125.61C361.801 125.403 362.005 125.107 362.097 124.769L367.149 110.182L377.824 116.343C379.364 117.267 380.704 116.528 380.704 114.679V74.3527Z" fill="#0A69D7"/>
<path opacity="0.5" d="M380.704 74.3527C380.649 73.3513 380.359 72.377 379.859 71.5076C379.358 70.6383 378.662 69.8982 377.824 69.3465L336.111 45.2861C334.571 44.3619 333.23 45.1012 333.23 46.9497V87.261C333.284 88.265 333.573 89.2425 334.073 90.1146C334.573 90.9868 335.271 91.7294 336.111 92.2825L353.579 102.357L359.093 124.63C359.154 124.975 359.33 125.289 359.593 125.521C359.856 125.752 360.19 125.887 360.539 125.903C360.889 125.92 361.234 125.816 361.517 125.61C361.801 125.403 362.005 125.107 362.097 124.769L367.149 110.182L377.824 116.343C379.364 117.267 380.704 116.528 380.704 114.679V74.3527Z" fill="white"/>
<path d="M349.036 63.6927C349.888 64.1769 350.674 64.7669 351.378 65.4487C352.003 66.064 352.565 66.74 353.057 67.4665C353.486 68.1087 353.832 68.8022 354.089 69.5306C354.306 70.1477 354.445 70.7893 354.505 71.4407C354.505 72.103 354.582 72.7962 354.582 73.5202C354.582 74.2441 354.582 74.9065 354.505 75.5226C354.469 76.0242 354.328 76.5126 354.089 76.9552C353.865 77.3621 353.497 77.6701 353.057 77.8178C352.514 77.9947 351.934 78.0213 351.378 77.8948C350.547 77.7028 349.755 77.3694 349.036 76.909C348.178 76.4351 347.385 75.8498 346.68 75.1683C346.048 74.5742 345.49 73.9072 345.016 73.1813C344.581 72.5426 344.234 71.8483 343.984 71.1172C343.77 70.4985 343.625 69.8579 343.553 69.2072C343.553 68.5294 343.553 67.8362 343.553 67.1277C343.553 66.4191 343.553 65.7259 343.553 65.1252C343.6 64.6238 343.747 64.1369 343.984 63.6927C344.207 63.2818 344.575 62.9688 345.016 62.8146C345.562 62.6783 346.134 62.6783 346.68 62.8146C347.51 62.9691 348.307 63.2661 349.036 63.6927ZM363.762 73.0735C363.923 72.9646 364.108 72.8959 364.301 72.8732C364.584 72.8917 364.856 72.9877 365.087 73.1505L367.29 74.4136C367.539 74.5616 367.758 74.7549 367.937 74.9835C368.079 75.1816 368.159 75.4175 368.168 75.6613C368.174 75.7176 368.174 75.7744 368.168 75.8307C368.137 75.8855 368.101 75.9371 368.06 75.9847L349.914 89.3859C349.753 89.4948 349.568 89.5634 349.375 89.5861C349.093 89.5676 348.821 89.4717 348.59 89.3089L346.387 88.0458C346.132 87.9063 345.911 87.7116 345.74 87.4759C345.598 87.2778 345.517 87.0419 345.509 86.7981C345.494 86.7478 345.494 86.6944 345.509 86.644C345.53 86.5793 345.567 86.521 345.617 86.4746L363.762 73.0735ZM350.977 73.0735C351 72.8481 351 72.6211 350.977 72.3957V70.4086C350.998 70.1729 350.998 69.9358 350.977 69.7001C350.932 69.158 350.769 68.6324 350.5 68.1597C350.15 67.5746 349.643 67.0995 349.036 66.7888C348.328 66.3883 347.835 66.2651 347.496 66.4653C347.353 66.585 347.237 66.7331 347.155 66.9002C347.073 67.0673 347.026 67.2497 347.019 67.4357C347.019 67.559 347.019 67.79 347.019 68.0981C347.019 68.4062 347.019 68.7296 347.019 69.0839C347.019 69.4382 347.019 69.7617 347.019 70.0851C347.019 70.4086 347.019 70.6551 347.019 70.8091C347.079 71.3482 347.241 71.8709 347.496 72.3495C347.874 72.9354 348.407 73.4048 349.036 73.705C349.745 74.1209 350.238 74.2287 350.5 74.0439C350.642 73.934 350.758 73.7943 350.841 73.6346C350.923 73.475 350.97 73.2992 350.977 73.1197V73.0735ZM364.933 85.7198C365.793 86.2042 366.585 86.7998 367.29 87.4912C367.918 88.0941 368.476 88.7658 368.953 89.4937C369.385 90.1341 369.732 90.8279 369.985 91.5578C370.198 92.177 370.343 92.8174 370.417 93.4679C370.417 94.1456 370.417 94.8388 370.417 95.5628C370.417 96.2867 370.417 96.9491 370.417 97.5498C370.369 98.0512 370.223 98.5381 369.985 98.9824C369.763 99.3932 369.395 99.7062 368.953 99.8604C368.409 100.013 367.834 100.013 367.29 99.8604C366.456 99.6684 365.66 99.3405 364.933 98.8899C364.088 98.4018 363.302 97.8177 362.592 97.1493C361.963 96.5425 361.401 95.8713 360.913 95.1469C360.49 94.5012 360.143 93.8086 359.881 93.0828C359.664 92.4657 359.524 91.8241 359.465 91.1727C359.465 90.5104 359.388 89.8172 359.388 89.0932C359.388 88.3693 359.388 87.7069 359.465 87.0908C359.502 86.5895 359.644 86.1015 359.881 85.6582C360.112 85.2577 360.477 84.9521 360.913 84.7956C361.455 84.6209 362.033 84.589 362.592 84.7032C363.428 84.9198 364.22 85.2794 364.933 85.7661V85.7198ZM366.889 95.1469C366.902 94.9211 366.902 94.6948 366.889 94.4691V92.5282C366.889 92.2202 366.889 91.9737 366.889 91.8197C366.836 91.2791 366.674 90.7551 366.412 90.2793C366.035 89.6887 365.502 89.2142 364.871 88.9084C364.163 88.5079 363.67 88.3847 363.408 88.5849C363.26 88.6997 363.14 88.8468 363.057 89.0149C362.974 89.1831 362.931 89.3679 362.93 89.5553C362.914 89.7758 362.914 89.9972 362.93 90.2177C362.93 90.5258 362.93 90.8492 362.93 91.2035C362.93 91.5578 362.93 91.8813 362.93 92.2048C362.915 92.4458 362.915 92.6876 362.93 92.9287C362.976 93.4708 363.139 93.9964 363.408 94.4691C363.758 95.0542 364.265 95.5293 364.871 95.84C365.58 96.2405 366.093 96.3483 366.412 96.1635C366.557 96.0465 366.676 95.8989 366.758 95.7313C366.841 95.5636 366.885 95.3799 366.889 95.1931V95.1469Z" fill="#FAFAFA"/>
<path d="M94.3214 227.665C94.3761 226.663 94.6653 225.688 95.1656 224.819C95.6659 223.949 96.3634 223.209 97.2019 222.659L138.915 198.583C140.455 197.659 141.795 198.413 141.795 200.262V240.573C141.743 241.575 141.455 242.551 140.954 243.421C140.454 244.291 139.755 245.03 138.915 245.579L121.447 255.653L115.933 277.942C115.951 278.351 115.806 278.75 115.531 279.052C115.255 279.354 114.87 279.534 114.462 279.552C114.053 279.57 113.654 279.426 113.352 279.15C113.05 278.874 112.87 278.489 112.852 278.081L107.815 263.494L97.1402 269.655C95.5999 270.579 94.2598 269.824 94.2598 267.991L94.3214 227.665Z" fill="#0A69D7"/>
<g opacity="0.5">
<path d="M94.3214 227.665C94.3761 226.663 94.6653 225.688 95.1656 224.819C95.6659 223.949 96.3634 223.209 97.2019 222.659L138.915 198.583C140.455 197.659 141.795 198.413 141.795 200.262V240.573C141.743 241.575 141.455 242.551 140.954 243.421C140.454 244.291 139.755 245.03 138.915 245.579L121.447 255.653L115.933 277.942C115.951 278.351 115.806 278.75 115.531 279.052C115.255 279.354 114.87 279.534 114.462 279.552C114.053 279.57 113.654 279.426 113.352 279.15C113.05 278.874 112.87 278.489 112.852 278.081L107.815 263.494L97.1402 269.655C95.5999 270.579 94.2598 269.824 94.2598 267.991L94.3214 227.665Z" fill="white"/>
</g>
<path d="M108.895 224.661C109.729 224.143 110.646 223.773 111.606 223.568C112.251 223.437 112.918 223.469 113.547 223.66C114.054 223.843 114.475 224.204 114.733 224.677C115.009 225.185 115.172 225.748 115.211 226.325C115.272 227.033 115.303 227.804 115.303 228.635C115.303 229.467 115.272 230.268 115.211 231.038C115.143 231.794 114.983 232.539 114.733 233.256C114.438 234.093 114.04 234.89 113.547 235.629C112.99 236.47 112.339 237.245 111.606 237.939C110.788 238.719 109.877 239.397 108.895 239.957C108.052 240.473 107.131 240.853 106.169 241.081C105.531 241.224 104.868 241.197 104.243 241.004C103.737 240.822 103.315 240.46 103.057 239.988C102.777 239.48 102.609 238.918 102.564 238.34C102.564 237.631 102.564 236.799 102.564 236.029C102.564 235.259 102.564 234.396 102.564 233.626C102.638 232.869 102.804 232.125 103.057 231.408C103.346 230.568 103.745 229.771 104.243 229.036C104.804 228.196 105.449 227.417 106.169 226.71C106.991 225.919 107.907 225.231 108.895 224.661ZM125.839 215.866C126.014 215.529 126.22 215.209 126.455 214.911C126.715 214.615 127.022 214.365 127.364 214.171L129.921 212.631C130.134 212.474 130.399 212.408 130.661 212.446C130.846 212.446 130.938 212.646 130.938 212.893C130.949 212.975 130.949 213.058 130.938 213.139L130.815 213.463L109.835 253.173C109.66 253.506 109.454 253.82 109.219 254.113C108.963 254.412 108.655 254.663 108.31 254.852L105.768 256.393C105.55 256.549 105.28 256.615 105.014 256.578C104.829 256.578 104.736 256.377 104.736 256.131C104.726 256.049 104.726 255.966 104.736 255.884L104.86 255.561L125.839 215.866ZM111.144 233.01C111.165 232.733 111.165 232.455 111.144 232.178V229.883C111.167 229.622 111.167 229.359 111.144 229.097C111.136 228.882 111.082 228.67 110.987 228.476C110.891 228.283 110.756 228.111 110.59 227.973C110.282 227.757 109.712 227.973 108.895 228.358C108.265 228.676 107.727 229.15 107.334 229.735C106.94 230.321 106.703 230.997 106.646 231.701C106.624 231.983 106.624 232.266 106.646 232.548C106.646 232.918 106.646 233.303 106.646 233.703C106.646 234.104 106.646 234.473 106.646 234.843C106.622 235.099 106.622 235.357 106.646 235.613C106.646 235.831 106.696 236.045 106.793 236.24C106.889 236.435 107.028 236.605 107.201 236.738C107.509 236.953 108.064 236.815 108.895 236.353C109.59 236.004 110.176 235.471 110.59 234.812C110.896 234.256 111.085 233.642 111.144 233.01ZM127.272 229.005C128.113 228.486 129.034 228.111 129.998 227.896C130.638 227.766 131.3 227.797 131.924 227.988C132.43 228.171 132.852 228.533 133.11 229.005C133.39 229.513 133.558 230.075 133.603 230.653C133.603 231.362 133.68 232.194 133.68 232.964C133.68 233.734 133.68 234.597 133.603 235.367C133.53 236.124 133.365 236.869 133.11 237.585C132.818 238.428 132.42 239.231 131.924 239.972C130.744 241.753 129.161 243.231 127.303 244.285C126.466 244.805 125.55 245.185 124.592 245.41C123.95 245.56 123.279 245.533 122.651 245.333C122.141 245.155 121.718 244.792 121.465 244.316C121.187 243.808 121.024 243.246 120.987 242.668C120.987 241.975 120.895 241.128 120.895 240.373C120.895 239.618 120.895 238.725 120.987 237.955C121.054 237.203 121.214 236.463 121.465 235.752C121.76 234.91 122.158 234.108 122.651 233.364C123.212 232.521 123.862 231.741 124.592 231.038C125.389 230.23 126.29 229.53 127.272 228.959V229.005ZM129.521 237.292C129.542 237.015 129.542 236.737 129.521 236.46V234.181C129.543 233.919 129.543 233.656 129.521 233.395C129.522 233.177 129.473 232.963 129.376 232.767C129.28 232.572 129.14 232.402 128.966 232.271C128.658 232.055 128.104 232.178 127.272 232.656C126.579 233.008 125.994 233.54 125.577 234.196C125.28 234.745 125.092 235.347 125.023 235.967C125.008 236.245 125.008 236.522 125.023 236.799C125.023 237.184 125.023 237.569 125.023 237.955C125.023 238.34 125.023 238.74 125.023 239.094C125.007 239.351 125.007 239.608 125.023 239.865C125.031 240.08 125.085 240.292 125.181 240.486C125.276 240.68 125.411 240.851 125.577 240.989C125.886 241.205 126.455 241.081 127.272 240.604C127.967 240.256 128.554 239.723 128.966 239.064C129.284 238.506 129.473 237.886 129.521 237.246V237.292Z" fill="#FAFAFA"/>
</svg>
