<svg width="650" height="496" viewBox="0 0 650 496" fill="none" xmlns="http://www.w3.org/2000/svg">
<path d="M650 436.605H0V436.93H650V436.605Z" fill="#E0E0E0"/>
<path d="M493.13 448.591H448.41V448.916H493.13V448.591Z" fill="#E0E0E0"/>
<path d="M545.74 447.668H520.572V447.993H545.74V447.668Z" fill="#E0E0E0"/>
<path d="M321.542 448.435H288.158V448.76H321.542V448.435Z" fill="#E0E0E0"/>
<path d="M345.657 453.05H322.855V453.375H345.657V453.05Z" fill="#E0E0E0"/>
<path d="M188.071 445.146H119.184V445.471H188.071V445.146Z" fill="#E0E0E0"/>
<path d="M308.101 378.625H57.0838C55.1174 378.622 53.2326 377.838 51.8434 376.446C50.4541 375.055 49.6738 373.169 49.6738 371.202V18.3431C49.6909 16.3879 50.4788 14.5185 51.8662 13.1408C53.2536 11.7631 55.1286 10.9885 57.0838 10.9851H308.101C310.07 10.9851 311.958 11.7672 313.35 13.1593C314.742 14.5513 315.524 16.4394 315.524 18.4081V371.202C315.524 373.171 314.742 375.059 313.35 376.451C311.958 377.843 310.07 378.625 308.101 378.625ZM57.0838 11.2451C55.2036 11.2486 53.4015 11.9979 52.0732 13.3287C50.7449 14.6594 49.9988 16.4629 49.9988 18.3431V371.202C49.9988 373.082 50.7449 374.886 52.0732 376.217C53.4015 377.547 55.2036 378.297 57.0838 378.3H308.101C309.982 378.297 311.786 377.548 313.116 376.217C314.446 374.887 315.195 373.084 315.199 371.202V18.3431C315.195 16.4617 314.446 14.6582 313.116 13.3279C311.786 11.9975 309.982 11.2485 308.101 11.2451H57.0838Z" fill="#E0E0E0"/>
<path d="M589.303 378.625H338.273C336.305 378.622 334.419 377.838 333.028 376.447C331.636 375.056 330.853 373.17 330.85 371.202V18.3431C330.87 16.3868 331.661 14.5173 333.05 13.14C334.44 11.7626 336.316 10.9884 338.273 10.9851H589.303C591.256 10.9919 593.127 11.768 594.512 13.1454C595.896 14.5227 596.682 16.3902 596.7 18.3431V371.202C596.7 373.166 595.921 375.05 594.535 376.442C593.148 377.833 591.267 378.618 589.303 378.625ZM338.273 11.2451C336.391 11.2485 334.588 11.9975 333.257 13.3279C331.927 14.6582 331.178 16.4617 331.175 18.3431V371.202C331.178 373.084 331.927 374.887 333.257 376.217C334.588 377.548 336.391 378.297 338.273 378.3H589.303C591.184 378.297 592.987 377.548 594.318 376.217C595.648 374.887 596.397 373.084 596.401 371.202V18.3431C596.397 16.4617 595.648 14.6582 594.318 13.3279C592.987 11.9975 591.184 11.2485 589.303 11.2451H338.273Z" fill="#E0E0E0"/>
<path d="M564.24 42.5361H368.33V210.964H564.24V42.5361Z" fill="#E0E0E0"/>
<path d="M568.594 42.5361H372.684V210.964H568.594V42.5361Z" fill="#F0F0F0"/>
<path d="M560.781 203.06V50.4399L380.497 50.4399V203.06H560.781Z" fill="#FAFAFA"/>
<path d="M503.164 203.06V50.4399H491.386V203.06H503.164Z" fill="#E0E0E0"/>
<path d="M441.207 203.06V50.4399H429.429V203.06H441.207Z" fill="#E0E0E0"/>
<path d="M507.311 208.065V44.5511H495.533V208.065H507.311Z" fill="#F0F0F0"/>
<path d="M445.34 208.078V44.5641H433.562V208.078H445.34Z" fill="#F0F0F0"/>
<path d="M560.781 203.047V50.4271H557.492V203.047H560.781Z" fill="#E0E0E0"/>
<path d="M230.542 175.552C230.542 175.552 206.7 134.485 239.785 101.738C239.785 101.738 248.417 107.367 248.287 114.933C248.157 122.499 239.031 124.41 240.994 130.728C242.957 137.046 251.55 143.221 245.908 148.447C240.266 153.673 246.818 158.301 246.441 164.697C246.064 171.093 230.542 175.552 230.542 175.552Z" fill="#E0E0E0"/>
<path d="M234.287 182.273C234.287 182.273 243.959 135.759 202.255 115.141C202.255 115.141 195.833 123.201 198.355 130.338C200.877 137.475 210.119 136.409 210.249 143.026C210.379 149.643 204.179 158.223 211.173 161.395C218.167 164.567 213.422 171.041 215.801 176.995C218.18 182.949 234.287 182.273 234.287 182.273Z" fill="#E6E6E6"/>
<path d="M213.057 170.456C213.057 170.456 213.473 210.613 229.528 210.613C245.583 210.613 245.986 170.456 245.986 170.456H213.057Z" fill="#F0F0F0"/>
<path d="M116.598 195.507C116.598 195.507 117.495 210.613 151.776 210.613C186.057 210.613 186.967 195.507 186.967 195.507H116.598Z" fill="#E6E6E6"/>
<path d="M478.01 286.585H459.914C457.66 286.585 455.832 288.413 455.832 290.667V320.593C455.832 322.848 457.66 324.675 459.914 324.675H478.01C480.264 324.675 482.092 322.848 482.092 320.593V290.667C482.092 288.413 480.264 286.585 478.01 286.585Z" fill="#F0F0F0"/>
<path d="M526.006 299.039H513.825C512.31 299.039 511.082 300.267 511.082 301.782V321.932C511.082 323.447 512.31 324.675 513.825 324.675H526.006C527.521 324.675 528.749 323.447 528.749 321.932V301.782C528.749 300.267 527.521 299.039 526.006 299.039Z" fill="#E6E6E6"/>
<path d="M527.826 296.556H512.005C511.495 296.556 511.082 296.97 511.082 297.479V298.519C511.082 299.029 511.495 299.442 512.005 299.442H527.826C528.336 299.442 528.749 299.029 528.749 298.519V297.479C528.749 296.97 528.336 296.556 527.826 296.556Z" fill="#F0F0F0"/>
<path d="M413.945 303.485C413.945 303.485 414.595 324.675 439.412 324.675C464.229 324.675 464.892 303.485 464.892 303.485H413.945Z" fill="#E6E6E6"/>
<path d="M352.222 275.496H389.779V268.086H352.222V275.496Z" fill="#E0E0E0"/>
<path d="M576.498 268.099H389.779V275.509H576.498V268.099Z" fill="#F0F0F0"/>
<path d="M352.222 332.085H389.779V324.675H352.222V332.085Z" fill="#E0E0E0"/>
<path d="M576.498 324.675H389.779V332.085H576.498V324.675Z" fill="#F0F0F0"/>
<path d="M365.755 275.496H358.826V436.592H365.755V275.496Z" fill="#E0E0E0"/>
<path d="M396.708 275.496H389.779V436.592H396.708V275.496Z" fill="#F0F0F0"/>
<path d="M552.474 275.496H545.545V436.592H552.474V275.496Z" fill="#E0E0E0"/>
<path d="M576.497 275.496H569.568V436.592H576.497V275.496Z" fill="#F0F0F0"/>
<path d="M116.598 220.038H81.082V426.855H116.598V220.038Z" fill="#E6E6E6"/>
<path d="M263.04 426.842H87.9043V436.605H263.04V426.842Z" fill="#E6E6E6"/>
<path d="M116.597 426.842H269.854V220.025L116.597 220.025L116.597 426.842Z" fill="#F0F0F0"/>
<path d="M130.56 348.699H255.893V298.181H130.56V348.699Z" fill="#E6E6E6"/>
<path d="M130.56 408.421H255.893V357.903H130.56V408.421Z" fill="#E6E6E6"/>
<path d="M207.298 303.719H179.153C178.237 303.715 177.36 303.35 176.712 302.702C176.064 302.055 175.699 301.177 175.695 300.261C175.695 299.343 176.059 298.462 176.707 297.811C177.355 297.161 178.235 296.793 179.153 296.79H207.298C208.217 296.793 209.096 297.161 209.744 297.811C210.392 298.462 210.756 299.343 210.756 300.261C210.753 301.177 210.387 302.055 209.74 302.702C209.092 303.35 208.214 303.715 207.298 303.719Z" fill="#F0F0F0"/>
<path d="M130.56 288.964H255.893V238.446H130.56V288.964Z" fill="#E6E6E6"/>
<path d="M207.298 243.997H179.153C178.235 243.994 177.355 243.626 176.707 242.976C176.059 242.325 175.695 241.444 175.695 240.526C175.699 239.61 176.064 238.732 176.712 238.085C177.36 237.437 178.237 237.071 179.153 237.068H207.298C208.214 237.071 209.092 237.437 209.74 238.085C210.387 238.732 210.753 239.61 210.756 240.526C210.756 241.444 210.392 242.325 209.744 242.976C209.096 243.626 208.217 243.994 207.298 243.997Z" fill="#F0F0F0"/>
<path d="M207.298 363.441H179.153C178.237 363.438 177.36 363.072 176.712 362.425C176.064 361.777 175.699 360.899 175.695 359.983C175.695 359.065 176.059 358.184 176.707 357.533C177.355 356.883 178.235 356.516 179.153 356.512H207.298C208.217 356.516 209.096 356.883 209.744 357.533C210.392 358.184 210.756 359.065 210.756 359.983C210.753 360.899 210.387 361.777 209.74 362.425C209.092 363.072 208.214 363.438 207.298 363.441Z" fill="#F0F0F0"/>
<path d="M274.587 210.613H116.598V220.038H274.587V210.613Z" fill="#E6E6E6"/>
<path d="M76.1157 220.025H116.598V210.6H76.1157V220.025Z" fill="#E0E0E0"/>
<path d="M156.183 50.4399H98.7227V113.542H156.183V50.4399Z" fill="#E6E6E6"/>
<path d="M162.409 50.4399H103.051V113.542H162.409V50.4399Z" fill="#F0F0F0"/>
<path d="M157.43 108.563V55.4061H108.017V108.563H157.43Z" fill="#FAFAFA"/>
<path d="M145.457 95.6801V68.2891H120.003V95.6801H145.457Z" fill="#F0F0F0"/>
<path d="M216.762 31.811H173.186V78.624H216.762V31.811Z" fill="#E6E6E6"/>
<path d="M221.388 31.811H177.357V78.624H221.388V31.811Z" fill="#F0F0F0"/>
<path d="M217.699 74.9322V35.5032H181.052V74.9322H217.699Z" fill="#FAFAFA"/>
<path d="M199.367 45.2402L189.344 62.6082H209.39L199.367 45.2402Z" fill="#F0F0F0"/>
<path d="M325 495.313C464.208 495.313 577.057 488.724 577.057 480.597C577.057 472.47 464.208 465.881 325 465.881C185.793 465.881 72.9434 472.47 72.9434 480.597C72.9434 488.724 185.793 495.313 325 495.313Z" fill="#F5F5F5"/>
<path d="M545.738 129.051H418.208C411.481 129.051 406.027 134.505 406.027 141.232V175.916C406.027 182.643 411.481 188.097 418.208 188.097H545.738C552.466 188.097 557.919 182.643 557.919 175.916V141.232C557.919 134.505 552.466 129.051 545.738 129.051Z" fill="#0A69D7"/>
<path d="M520.44 139.009H420.821C419.644 139.009 418.689 139.964 418.689 141.141V143.481C418.689 144.659 419.644 145.613 420.821 145.613H520.44C521.618 145.613 522.572 144.659 522.572 143.481V141.141C522.572 139.964 521.618 139.009 520.44 139.009Z" fill="#0A69D7"/>
<path d="M488.889 154.921H420.821C419.644 154.921 418.689 155.876 418.689 157.053V159.393C418.689 160.57 419.644 161.525 420.821 161.525H488.889C490.067 161.525 491.021 160.57 491.021 159.393V157.053C491.021 155.876 490.067 154.921 488.889 154.921Z" fill="#0A69D7"/>
<path d="M470.637 170.833H420.821C419.644 170.833 418.689 171.788 418.689 172.965V175.305C418.689 176.482 419.644 177.437 420.821 177.437H470.637C471.815 177.437 472.769 176.482 472.769 175.305V172.965C472.769 171.788 471.815 170.833 470.637 170.833Z" fill="#0A69D7"/>
<path d="M532.374 170.833H482.558C481.38 170.833 480.426 171.788 480.426 172.965V175.305C480.426 176.482 481.38 177.437 482.558 177.437H532.374C533.551 177.437 534.506 176.482 534.506 175.305V172.965C534.506 171.788 533.551 170.833 532.374 170.833Z" fill="#0A69D7"/>
<g opacity="0.5">
<path d="M520.44 139.009H420.821C419.644 139.009 418.689 139.964 418.689 141.141V143.481C418.689 144.659 419.644 145.613 420.821 145.613H520.44C521.618 145.613 522.572 144.659 522.572 143.481V141.141C522.572 139.964 521.618 139.009 520.44 139.009Z" fill="white"/>
<path d="M488.889 154.921H420.821C419.644 154.921 418.689 155.875 418.689 157.053V159.393C418.689 160.57 419.644 161.525 420.821 161.525H488.889C490.067 161.525 491.021 160.57 491.021 159.393V157.053C491.021 155.875 490.067 154.921 488.889 154.921Z" fill="white"/>
<path d="M470.637 170.833H420.821C419.644 170.833 418.689 171.788 418.689 172.965V175.305C418.689 176.482 419.644 177.437 420.821 177.437H470.637C471.815 177.437 472.769 176.482 472.769 175.305V172.965C472.769 171.788 471.815 170.833 470.637 170.833Z" fill="white"/>
<path d="M532.376 170.833H482.56C481.382 170.833 480.428 171.788 480.428 172.965V175.305C480.428 176.482 481.382 177.437 482.56 177.437H532.376C533.553 177.437 534.508 176.482 534.508 175.305V172.965C534.508 171.788 533.553 170.833 532.376 170.833Z" fill="white"/>
</g>
<path d="M443.586 115.284H298.831C288.966 115.284 280.969 123.281 280.969 133.146V184.002C280.969 193.867 288.966 201.864 298.831 201.864H443.586C453.451 201.864 461.448 193.867 461.448 184.002V133.146C461.448 123.281 453.451 115.284 443.586 115.284Z" fill="#0A69D7"/>
<path d="M448.706 129.883H302.664C300.934 129.883 299.531 131.286 299.531 133.016V136.435C299.531 138.165 300.934 139.568 302.664 139.568H448.706C450.437 139.568 451.839 138.165 451.839 136.435V133.016C451.839 131.286 450.437 129.883 448.706 129.883Z" fill="#0A69D7"/>
<path d="M402.439 153.218H302.664C300.934 153.218 299.531 154.621 299.531 156.351V159.77C299.531 161.5 300.934 162.903 302.664 162.903H402.439C404.17 162.903 405.572 161.5 405.572 159.77V156.351C405.572 154.621 404.17 153.218 402.439 153.218Z" fill="#0A69D7"/>
<path d="M375.685 176.553H302.664C300.934 176.553 299.531 177.955 299.531 179.686V183.105C299.531 184.835 300.934 186.238 302.664 186.238H375.685C377.416 186.238 378.818 184.835 378.818 183.105V179.686C378.818 177.955 377.416 176.553 375.685 176.553Z" fill="#0A69D7"/>
<path d="M454.024 176.553H393.184C391.453 176.553 390.051 177.955 390.051 179.686V183.105C390.051 184.835 391.453 186.238 393.184 186.238H454.024C455.754 186.238 457.157 184.835 457.157 183.105V179.686C457.157 177.955 455.754 176.553 454.024 176.553Z" fill="#0A69D7"/>
<g opacity="0.5">
<path d="M448.706 129.883H302.664C300.934 129.883 299.531 131.286 299.531 133.016V136.435C299.531 138.166 300.934 139.568 302.664 139.568H448.706C450.437 139.568 451.839 138.166 451.839 136.435V133.016C451.839 131.286 450.437 129.883 448.706 129.883Z" fill="white"/>
<path d="M402.439 153.218H302.664C300.934 153.218 299.531 154.621 299.531 156.351V159.77C299.531 161.5 300.934 162.903 302.664 162.903H402.439C404.17 162.903 405.572 161.5 405.572 159.77V156.351C405.572 154.621 404.17 153.218 402.439 153.218Z" fill="white"/>
<path d="M375.685 176.553H302.664C300.934 176.553 299.531 177.956 299.531 179.686V183.105C299.531 184.836 300.934 186.238 302.664 186.238H375.685C377.416 186.238 378.818 184.836 378.818 183.105V179.686C378.818 177.956 377.416 176.553 375.685 176.553Z" fill="white"/>
<path d="M454.024 176.553H393.184C391.453 176.553 390.051 177.956 390.051 179.686V183.105C390.051 184.836 391.453 186.238 393.184 186.238H454.024C455.754 186.238 457.157 184.836 457.157 183.105V179.686C457.157 177.956 455.754 176.553 454.024 176.553Z" fill="white"/>
</g>
<path d="M353.585 217.555H283.866C279.256 217.555 275.52 221.292 275.52 225.901V330.343C275.52 334.952 279.256 338.689 283.866 338.689H353.585C358.194 338.689 361.931 334.952 361.931 330.343V225.901C361.931 221.292 358.194 217.555 353.585 217.555Z" fill="#0A69D7"/>
<path opacity="0.4" d="M353.585 217.555H283.866C279.256 217.555 275.52 221.292 275.52 225.901V330.343C275.52 334.952 279.256 338.689 283.866 338.689H353.585C358.194 338.689 361.931 334.952 361.931 330.343V225.901C361.931 221.292 358.194 217.555 353.585 217.555Z" fill="black"/>
<path d="M350.39 230.191H287.054C286.206 230.191 285.52 230.878 285.52 231.725V234.026C285.52 234.873 286.206 235.56 287.054 235.56H350.39C351.237 235.56 351.924 234.873 351.924 234.026V231.725C351.924 230.878 351.237 230.191 350.39 230.191Z" fill="#FAFAFA"/>
<path d="M330.227 243.113H287.054C286.206 243.113 285.52 243.8 285.52 244.647V246.948C285.52 247.795 286.206 248.482 287.054 248.482H330.227C331.074 248.482 331.761 247.795 331.761 246.948V244.647C331.761 243.8 331.074 243.113 330.227 243.113Z" fill="#FAFAFA"/>
<path d="M350.39 256.048H287.054C286.206 256.048 285.52 256.735 285.52 257.582V259.883C285.52 260.73 286.206 261.417 287.054 261.417H350.39C351.237 261.417 351.924 260.73 351.924 259.883V257.582C351.924 256.735 351.237 256.048 350.39 256.048Z" fill="#FAFAFA"/>
<path d="M310.597 268.97H287.054C286.206 268.97 285.52 269.657 285.52 270.504V272.805C285.52 273.652 286.206 274.339 287.054 274.339H310.597C311.444 274.339 312.131 273.652 312.131 272.805V270.504C312.131 269.657 311.444 268.97 310.597 268.97Z" fill="#FAFAFA"/>
<path d="M343.536 268.97H319.993C319.146 268.97 318.459 269.657 318.459 270.504V272.805C318.459 273.652 319.146 274.339 319.993 274.339H343.536C344.383 274.339 345.07 273.652 345.07 272.805V270.504C345.07 269.657 344.383 268.97 343.536 268.97Z" fill="#FAFAFA"/>
<path d="M350.39 281.905H287.054C286.206 281.905 285.52 282.592 285.52 283.439V285.74C285.52 286.587 286.206 287.274 287.054 287.274H350.39C351.237 287.274 351.924 286.587 351.924 285.74V283.439C351.924 282.592 351.237 281.905 350.39 281.905Z" fill="#FAFAFA"/>
<path d="M350.39 294.827H287.054C286.206 294.827 285.52 295.514 285.52 296.361V298.662C285.52 299.509 286.206 300.196 287.054 300.196H350.39C351.237 300.196 351.924 299.509 351.924 298.662V296.361C351.924 295.514 351.237 294.827 350.39 294.827Z" fill="#FAFAFA"/>
<path d="M339.158 307.762H287.054C286.206 307.762 285.52 308.449 285.52 309.296V311.597C285.52 312.444 286.206 313.131 287.054 313.131H339.158C340.005 313.131 340.692 312.444 340.692 311.597V309.296C340.692 308.449 340.005 307.762 339.158 307.762Z" fill="#FAFAFA"/>
<path d="M311.364 320.684H287.054C286.206 320.684 285.52 321.371 285.52 322.218V324.519C285.52 325.366 286.206 326.053 287.054 326.053H311.364C312.211 326.053 312.898 325.366 312.898 324.519V322.218C312.898 321.371 312.211 320.684 311.364 320.684Z" fill="#FAFAFA"/>
<path d="M372.449 216.814H275.742L318.499 250.835L384.058 275.535V228.397C384.051 225.323 382.825 222.376 380.649 220.205C378.472 218.033 375.524 216.814 372.449 216.814Z" fill="#0A69D7"/>
<path opacity="0.4" d="M372.449 216.814H275.742L318.499 250.835L384.058 275.535V228.397C384.051 225.323 382.825 222.376 380.649 220.205C378.472 218.033 375.524 216.814 372.449 216.814Z" fill="black"/>
<path d="M368.224 234.338H297.465C296.402 234.338 295.541 235.199 295.541 236.262V239.85C295.541 240.912 296.402 241.774 297.465 241.774H368.224C369.287 241.774 370.148 240.912 370.148 239.85V236.262C370.148 235.199 369.287 234.338 368.224 234.338Z" fill="#FAFAFA"/>
<path d="M539.693 308.906V240.89C539.693 235.678 535.468 231.452 530.255 231.452H412.15C406.938 231.452 402.712 235.678 402.712 240.89V308.906C402.712 314.118 406.938 318.344 412.15 318.344H530.255C535.468 318.344 539.693 314.118 539.693 308.906Z" fill="#0A69D7"/>
<path d="M561.262 287.352V219.336C561.262 214.123 557.036 209.898 551.824 209.898H433.719C428.506 209.898 424.281 214.123 424.281 219.336V287.352C424.281 292.564 428.506 296.79 433.719 296.79H551.824C557.036 296.79 561.262 292.564 561.262 287.352Z" fill="#0A69D7"/>
<path opacity="0.5" d="M561.262 287.352V219.336C561.262 214.123 557.036 209.898 551.824 209.898H433.719C428.506 209.898 424.281 214.123 424.281 219.336V287.352C424.281 292.564 428.506 296.79 433.719 296.79H551.824C557.036 296.79 561.262 292.564 561.262 287.352Z" fill="white"/>
<path d="M549.273 264.043V222.17C549.273 219.851 547.393 217.971 545.074 217.971H506.477C504.158 217.971 502.278 219.851 502.278 222.17V264.043C502.278 266.362 504.158 268.242 506.477 268.242H545.074C547.393 268.242 549.273 266.362 549.273 264.043Z" fill="#0A69D7"/>
<path opacity="0.7" d="M549.273 264.043V222.17C549.273 219.851 547.393 217.971 545.074 217.971H506.477C504.158 217.971 502.278 219.851 502.278 222.17V264.043C502.278 266.362 504.158 268.242 506.477 268.242H545.074C547.393 268.242 549.273 266.362 549.273 264.043Z" fill="white"/>
<path d="M494.922 284.297V252.213C494.922 250.433 493.478 248.989 491.698 248.989H462.123C460.342 248.989 458.899 250.433 458.899 252.213V284.297C458.899 286.078 460.342 287.521 462.123 287.521H491.698C493.478 287.521 494.922 286.078 494.922 284.297Z" fill="#0A69D7"/>
<path opacity="0.3" d="M494.922 284.297V252.213C494.922 250.433 493.478 248.989 491.698 248.989H462.123C460.342 248.989 458.899 250.433 458.899 252.213V284.297C458.899 286.078 460.342 287.521 462.123 287.521H491.698C493.478 287.521 494.922 286.078 494.922 284.297Z" fill="white"/>
<path d="M476.904 80.873V63.544C476.904 58.2453 472.609 53.95 467.31 53.95L149.941 53.95C144.643 53.95 140.347 58.2453 140.347 63.544V80.873C140.347 86.1716 144.643 90.4669 149.941 90.4669L467.31 90.4669C472.609 90.4669 476.904 86.1716 476.904 80.873Z" fill="#0A69D7"/>
<path opacity="0.5" d="M476.904 80.873V63.544C476.904 58.2453 472.609 53.95 467.31 53.95L149.941 53.95C144.643 53.95 140.347 58.2453 140.347 63.544V80.873C140.347 86.1716 144.643 90.4669 149.941 90.4669L467.31 90.4669C472.609 90.4669 476.904 86.1716 476.904 80.873Z" fill="white"/>
<path d="M416.857 96.577V84.006H325.532V96.577H416.857Z" fill="#0A69D7"/>
<path opacity="0.5" d="M416.857 96.577V84.006H325.532V96.577H416.857Z" fill="white"/>
<path d="M509.652 26.923V9.59401C509.652 4.29539 505.357 0 500.058 0L182.689 0C177.391 0 173.095 4.29539 173.095 9.59401V26.923C173.095 32.2216 177.391 36.517 182.689 36.517L500.058 36.517C505.357 36.517 509.652 32.2216 509.652 26.923Z" fill="#0A69D7"/>
<path d="M169.466 192.023C168.322 194.623 167.061 197.431 165.956 200.174C164.851 202.917 163.707 205.738 162.706 208.546C160.652 214.02 159.006 219.638 157.779 225.355L157.402 227.435L157.272 228.215C157.272 228.436 157.272 228.722 157.194 228.982C157.145 230.248 157.171 231.515 157.272 232.778C157.519 235.521 157.961 238.459 158.572 241.397C159.664 247.286 161.055 253.357 162.472 259.337L155.803 261.937C152.695 256.27 150.047 250.362 147.886 244.27C146.748 241.099 145.827 237.855 145.13 234.559C144.74 232.736 144.496 230.884 144.402 229.021C144.402 228.501 144.402 228.007 144.402 227.448C144.402 226.889 144.402 226.265 144.493 225.901L144.753 223.301C145.142 219.953 145.737 216.631 146.534 213.356C147.262 210.106 148.198 206.947 149.134 203.827C150.07 200.707 151.24 197.639 152.475 194.623C153.086 193.115 153.775 191.62 154.373 190.125C154.971 188.63 155.673 187.2 156.505 185.601L169.466 192.023Z" fill="#E4897B"/>
<path d="M162.121 257.582L167.191 262.535L156.128 267.735C156.128 267.735 153.45 263.042 155.309 258.804L162.121 257.582Z" fill="#E4897B"/>
<path d="M171.286 269.906L161.939 273.728L156.141 267.683L167.191 262.535L171.286 269.906Z" fill="#E4897B"/>
<path opacity="0.4" d="M360.631 264.576C342.237 262.511 324.869 255.038 310.721 243.103C296.573 231.169 286.282 215.307 281.148 197.524C276.013 179.741 276.267 160.835 281.876 143.196C287.485 125.557 298.198 109.977 312.66 98.4255C327.123 86.8741 344.685 79.8699 363.128 78.2985C381.57 76.727 400.065 80.6588 416.273 89.5968C432.481 98.5348 445.676 112.078 454.188 128.513C462.701 144.949 466.149 163.54 464.098 181.935C462.735 194.157 458.977 205.99 453.038 216.759C447.1 227.528 439.098 237.021 429.489 244.696C419.88 252.37 408.853 258.076 397.038 261.487C385.223 264.899 372.852 265.948 360.631 264.576Z" fill="#FAFAFA"/>
<path opacity="0.4" d="M428.725 97.8121L286.375 211.549C285.777 210.249 285.192 208.949 284.646 207.649C281.077 199.16 278.795 190.187 277.873 181.025L400.827 82.7841C410.922 86.1513 420.359 91.2352 428.725 97.8121Z" fill="#FAFAFA"/>
<path opacity="0.4" d="M461.577 147.641L327.742 254.566C315.028 247.938 304.009 238.472 295.541 226.902L441.674 110.136C451.094 120.948 457.903 133.78 461.577 147.641Z" fill="#FAFAFA"/>
<path d="M265.704 135.785L264.469 135.369C266.608 129.057 269.296 122.946 272.503 117.104L273.634 117.728C270.469 123.504 267.816 129.546 265.704 135.785ZM281.486 105.443L280.433 104.676C291.116 90.2302 305.099 78.5479 321.214 70.603L321.799 71.773C305.867 79.6358 292.045 91.1933 281.486 105.482V105.443ZM423.953 73.554C419.705 71.2754 415.31 69.282 410.797 67.587L411.265 66.365C415.822 68.0998 420.26 70.1322 424.551 72.449L423.953 73.554Z" fill="#0A69D7"/>
<path opacity="0.3" d="M265.704 135.785L264.469 135.369C266.608 129.057 269.296 122.946 272.503 117.104L273.634 117.728C270.469 123.504 267.816 129.546 265.704 135.785ZM281.486 105.443L280.433 104.676C291.116 90.2302 305.099 78.5479 321.214 70.603L321.799 71.773C305.867 79.6358 292.045 91.1933 281.486 105.482V105.443ZM423.953 73.554C419.705 71.2754 415.31 69.282 410.797 67.587L411.265 66.365C415.822 68.0998 420.26 70.1322 424.551 72.449L423.953 73.554Z" fill="black"/>
<path d="M467.83 123.747C455.792 98.7809 434.609 79.4044 408.671 69.6346C382.734 59.8647 354.031 60.4507 328.514 71.2711C302.997 82.0914 282.622 102.316 271.613 127.753C260.605 153.189 259.807 181.887 269.385 207.896C260.701 210.938 252.121 214.201 243.593 217.568C231.295 222.447 219.109 227.543 207.037 232.856C194.973 238.199 182.961 243.646 171.066 249.34C165.099 252.135 159.21 255.086 153.269 257.946C150.178 259.274 147.378 261.195 145.027 263.601C143.754 264.933 142.634 266.403 141.686 267.982C140.529 269.85 139.653 271.878 139.086 274.001C138.108 277.827 138.531 281.876 140.278 285.417C142.026 288.957 144.983 291.756 148.615 293.306C150.631 294.152 152.759 294.703 154.933 294.944C156.769 295.152 158.622 295.152 160.458 294.944C163.794 294.539 167.018 293.483 169.948 291.837C175.837 288.86 181.765 285.987 187.615 282.932C199.315 276.965 211.015 270.738 222.572 264.42C234.129 258.102 245.699 251.485 256.983 244.699C264.783 239.98 272.661 235.157 280.383 230.113C295.211 253.522 318.477 270.328 345.359 277.05C372.241 283.772 400.679 279.895 424.78 266.22C448.881 252.546 466.797 230.124 474.817 203.6C482.836 177.076 480.344 148.483 467.856 123.747H467.83ZM408.732 247.936C393.624 255.393 376.644 258.203 359.94 256.011C343.235 253.818 327.556 246.722 314.884 235.618C302.212 224.515 293.117 209.904 288.75 193.632C284.382 177.36 284.937 160.158 290.345 144.202C295.752 128.245 305.77 114.251 319.131 103.988C332.492 93.7244 348.597 87.6535 365.408 86.5424C382.219 85.4314 398.982 89.3302 413.578 97.7458C428.174 106.161 439.946 118.716 447.407 133.822C452.362 143.854 455.291 154.764 456.029 165.928C456.767 177.093 455.298 188.293 451.707 198.89C448.116 209.487 442.472 219.273 435.098 227.688C427.724 236.103 418.765 242.984 408.732 247.936Z" fill="#0A69D7"/>
<path opacity="0.3" d="M467.83 123.747C455.792 98.7809 434.609 79.4044 408.671 69.6346C382.734 59.8647 354.031 60.4507 328.514 71.2711C302.997 82.0914 282.622 102.316 271.613 127.753C260.605 153.189 259.807 181.887 269.385 207.896C260.701 210.938 252.121 214.201 243.593 217.568C231.295 222.447 219.109 227.543 207.037 232.856C194.973 238.199 182.961 243.646 171.066 249.34C165.099 252.135 159.21 255.086 153.269 257.946C150.178 259.274 147.378 261.195 145.027 263.601C143.754 264.933 142.634 266.403 141.686 267.982C140.529 269.85 139.653 271.878 139.086 274.001C138.108 277.827 138.531 281.876 140.278 285.417C142.026 288.957 144.983 291.756 148.615 293.306C150.631 294.152 152.759 294.703 154.933 294.944C156.769 295.152 158.622 295.152 160.458 294.944C163.794 294.539 167.018 293.483 169.948 291.837C175.837 288.86 181.765 285.987 187.615 282.932C199.315 276.965 211.015 270.738 222.572 264.42C234.129 258.102 245.699 251.485 256.983 244.699C264.783 239.98 272.661 235.157 280.383 230.113C295.211 253.522 318.477 270.328 345.359 277.05C372.241 283.772 400.679 279.895 424.78 266.22C448.881 252.546 466.797 230.124 474.817 203.6C482.836 177.076 480.344 148.483 467.856 123.747H467.83ZM408.732 247.936C393.624 255.393 376.644 258.203 359.94 256.011C343.235 253.818 327.556 246.722 314.884 235.618C302.212 224.515 293.117 209.904 288.75 193.632C284.382 177.36 284.937 160.158 290.345 144.202C295.752 128.245 305.77 114.251 319.131 103.988C332.492 93.7244 348.597 87.6535 365.408 86.5424C382.219 85.4314 398.982 89.3302 413.578 97.7458C428.174 106.161 439.946 118.716 447.407 133.822C452.362 143.854 455.291 154.764 456.029 165.928C456.767 177.093 455.298 188.293 451.707 198.89C448.116 209.487 442.472 219.273 435.098 227.688C427.724 236.103 418.765 242.984 408.732 247.936Z" fill="black"/>
<path d="M205.398 145.6C205.398 146.367 205.801 146.991 206.308 146.991C206.815 146.991 207.218 146.367 207.218 145.6C207.218 144.833 206.815 144.209 206.308 144.209C205.801 144.209 205.398 144.885 205.398 145.6Z" fill="#263238"/>
<path d="M205.762 146.991C206.682 149.345 207.92 151.563 209.441 153.582C208.915 153.958 208.313 154.215 207.678 154.334C207.042 154.453 206.388 154.431 205.762 154.271V146.991Z" fill="#DE5753"/>
<path d="M202.707 141.323C202.634 141.323 202.562 141.307 202.497 141.275C202.432 141.244 202.375 141.198 202.33 141.141C202.262 141.042 202.235 140.92 202.254 140.802C202.274 140.683 202.338 140.577 202.434 140.504C203.006 140.07 203.675 139.78 204.384 139.66C205.092 139.541 205.819 139.594 206.503 139.815C206.564 139.832 206.621 139.861 206.67 139.901C206.72 139.942 206.76 139.992 206.789 140.048C206.818 140.105 206.834 140.167 206.837 140.231C206.841 140.294 206.83 140.358 206.808 140.417C206.785 140.477 206.75 140.531 206.705 140.576C206.66 140.621 206.606 140.656 206.546 140.679C206.487 140.702 206.424 140.712 206.36 140.708C206.296 140.705 206.234 140.689 206.178 140.66C205.635 140.494 205.06 140.46 204.501 140.562C203.942 140.663 203.416 140.898 202.967 141.245C202.889 141.296 202.799 141.323 202.707 141.323Z" fill="#263238"/>
<path d="M179.137 151.385C180.437 158.366 181.867 171.171 176.979 175.838C176.979 175.838 178.89 182.923 191.877 182.923C206.177 182.923 198.689 175.838 198.689 175.838C190.889 173.966 191.11 168.194 192.462 162.76L179.137 151.385Z" fill="#E4897B"/>
<path d="M171.143 179.517C172.69 177.112 170.09 171.275 170.09 171.275C170.09 171.275 193.074 165.49 202.473 174.369C204.423 176.202 202.265 178.906 202.265 178.906L171.143 179.517Z" fill="#0A69D7"/>
<path opacity="0.1" d="M171.143 179.517C172.69 177.112 170.09 171.275 170.09 171.275C170.09 171.275 193.074 165.49 202.473 174.369C204.423 176.202 202.265 178.906 202.265 178.906L171.143 179.517Z" fill="black"/>
<path d="M133.117 444.756C131.908 444.756 129.971 442.741 129.399 441.987C129.374 441.95 129.361 441.907 129.361 441.863C129.361 441.819 129.374 441.776 129.399 441.74C129.42 441.703 129.45 441.673 129.487 441.653C129.524 441.632 129.565 441.622 129.607 441.623C129.75 441.623 132.935 441.909 133.806 443.04C133.901 443.159 133.968 443.298 134.004 443.446C134.04 443.594 134.044 443.748 134.014 443.898C134.003 444.091 133.932 444.277 133.811 444.428C133.689 444.579 133.524 444.689 133.338 444.743L133.117 444.756ZM130.101 442.156C131.05 443.248 132.571 444.483 133.221 444.327C133.221 444.327 133.481 444.262 133.559 443.846C133.576 443.759 133.573 443.669 133.551 443.584C133.528 443.498 133.487 443.419 133.429 443.352C132.466 442.622 131.307 442.197 130.101 442.13V442.156Z" fill="#0A69D7"/>
<path d="M130.246 442.13C130.012 442.154 129.777 442.154 129.544 442.13C129.503 442.127 129.463 442.111 129.431 442.086C129.399 442.061 129.375 442.026 129.362 441.987C129.344 441.951 129.334 441.911 129.334 441.87C129.334 441.829 129.344 441.789 129.362 441.753C129.453 441.675 131.364 439.686 132.807 439.686C132.979 439.682 133.151 439.715 133.31 439.782C133.469 439.849 133.612 439.949 133.73 440.076C133.859 440.184 133.948 440.333 133.981 440.499C134.014 440.664 133.99 440.836 133.912 440.986C133.535 441.714 131.546 442.13 130.246 442.13ZM130.077 441.675C131.377 441.675 133.262 441.272 133.574 440.7C133.574 440.7 133.665 440.531 133.457 440.323C133.381 440.241 133.288 440.176 133.185 440.133C133.082 440.091 132.97 440.071 132.859 440.076C131.793 440.32 130.825 440.877 130.077 441.675Z" fill="#0A69D7"/>
<path d="M218.905 474.266C217.92 474.259 216.937 474.168 215.967 473.993C215.919 473.984 215.875 473.958 215.844 473.92C215.814 473.882 215.797 473.834 215.798 473.785C215.791 473.74 215.797 473.694 215.815 473.652C215.834 473.611 215.864 473.576 215.902 473.551C216.045 473.473 219.373 471.562 220.972 472.004C221.12 472.038 221.26 472.101 221.383 472.19C221.506 472.28 221.609 472.393 221.687 472.524C221.789 472.669 221.843 472.841 221.843 473.018C221.843 473.195 221.789 473.367 221.687 473.512C221.31 474.097 220.127 474.266 218.905 474.266ZM216.708 473.655C218.476 473.915 220.894 473.902 221.336 473.278C221.401 473.2 221.453 473.057 221.336 472.784C221.237 472.622 221.078 472.506 220.894 472.459C219.88 472.199 217.865 473.057 216.708 473.655Z" fill="#0A69D7"/>
<path d="M216.019 474.006C215.977 474.018 215.932 474.018 215.889 474.006C215.853 473.983 215.825 473.949 215.809 473.91C215.792 473.87 215.789 473.827 215.798 473.785C215.886 472.432 216.406 471.142 217.28 470.106C217.457 469.953 217.665 469.841 217.889 469.775C218.113 469.71 218.349 469.694 218.58 469.729C219.204 469.729 219.386 470.106 219.425 470.353C219.594 471.432 217.319 473.499 216.162 474.019L216.019 474.006ZM218.346 470.106C218.06 470.104 217.783 470.205 217.566 470.392C216.831 471.213 216.376 472.246 216.266 473.343C217.436 472.628 218.996 471.016 218.866 470.366C218.866 470.366 218.866 470.145 218.424 470.106H218.346Z" fill="#0A69D7"/>
<path d="M205.516 473.772H215.071L216.02 451.659H206.465L205.516 473.772Z" fill="#E4897B"/>
<path d="M120.43 435.812L128.412 441.038L146.04 426.153L138.045 420.914L120.43 435.812Z" fill="#E4897B"/>
<path d="M129.725 440.544L121.431 433.745C121.285 433.624 121.101 433.559 120.911 433.559C120.721 433.559 120.538 433.624 120.391 433.745L113.553 439.114C113.388 439.245 113.254 439.412 113.163 439.603C113.071 439.793 113.023 440.001 113.023 440.212C113.023 440.423 113.071 440.632 113.163 440.822C113.254 441.012 113.388 441.179 113.553 441.311C116.491 443.638 118.038 444.626 121.691 447.616C123.94 449.449 129.491 455.065 132.624 457.6C135.757 460.135 138.63 457.405 137.59 456.092C132.923 450.177 131.09 445.12 130.557 441.987C130.465 441.42 130.169 440.907 129.725 440.544Z" fill="#263238"/>
<path d="M215.005 472.667H204.605C204.415 472.668 204.231 472.732 204.083 472.85C203.934 472.968 203.829 473.132 203.786 473.317L201.901 481.806C201.853 482.012 201.853 482.225 201.901 482.431C201.948 482.637 202.042 482.829 202.175 482.993C202.308 483.157 202.476 483.289 202.667 483.378C202.859 483.468 203.068 483.512 203.279 483.509C207.036 483.444 212.47 483.223 217.202 483.223C222.727 483.223 227.511 483.522 233.985 483.522C237.885 483.522 239.003 479.557 237.352 479.206C229.89 477.568 223.78 477.399 217.332 473.408C216.64 472.95 215.834 472.693 215.005 472.667Z" fill="#263238"/>
<path d="M158.156 178.685C149.875 182.585 145.156 208.715 145.156 208.715L165.397 216.788C168.36 209.553 170.755 202.099 172.56 194.493C175.342 182.455 166.632 174.655 158.156 178.685Z" fill="#263238"/>
<path d="M168.894 193.414C163.889 198.484 161.601 208.416 160.6 214.877L165.449 216.814C168.327 209.785 170.674 202.55 172.469 195.169C172.04 192.413 170.974 191.308 168.894 193.414Z" fill="#203048"/>
<path d="M213.38 178.503C213.38 178.503 223.546 189.995 213.952 261.053H162.875C162.524 253.253 167.451 214.968 159.885 178.022C165.529 176.927 171.24 176.207 176.98 175.864C184.21 175.435 191.459 175.435 198.69 175.864C203.647 176.363 208.559 177.245 213.38 178.503Z" fill="#263238"/>
<path d="M218.048 206.089L209.442 191.256C207.78 198.177 207.102 205.297 207.427 212.407C207.661 217.503 212.328 236.379 216.527 239.135C217.641 228.156 218.149 217.124 218.048 206.089Z" fill="#203048"/>
<path d="M219.243 188.656C220.543 194.974 221.843 201.448 223.234 207.792C224.625 214.136 226.068 220.506 227.745 226.655C228.174 228.176 228.577 229.736 229.045 231.192L229.396 232.31L229.565 232.869V232.804C229.474 232.687 229.37 232.674 229.448 232.804C229.982 233.388 230.665 233.814 231.424 234.039C232.653 234.496 233.918 234.849 235.207 235.092C241.353 236.066 247.576 236.471 253.797 236.301L255.032 243.373C253.29 243.932 251.665 244.335 249.949 244.738C248.233 245.141 246.543 245.479 244.814 245.739C241.237 246.335 237.61 246.578 233.985 246.467C231.97 246.413 229.966 246.151 228.005 245.687C225.511 245.141 223.168 244.054 221.141 242.502C219.817 241.433 218.725 240.106 217.93 238.602C217.722 238.212 217.54 237.77 217.371 237.393L217.137 236.782L216.656 235.482C215.993 233.831 215.447 232.206 214.849 230.581C212.652 224.081 210.819 217.516 209.207 210.964C207.595 204.412 206.204 197.873 205.047 191.152L219.243 188.656Z" fill="#E4897B"/>
<path d="M200.628 185.471C197.937 194.194 208.844 220.207 208.844 220.207L230.567 214.747C230.567 214.747 229.735 201.227 224.782 190.502C217.32 174.33 203.852 175.006 200.628 185.471Z" fill="#263238"/>
<path d="M253.616 236.301L264.432 236.028L259.232 247.286C259.232 247.286 254.825 247.871 251.211 241.93L247.402 237.38L251.783 236.509C252.386 236.382 253 236.312 253.616 236.301Z" fill="#E4897B"/>
<path d="M271.255 238.121L265.067 247.455L259.23 247.286L264.43 236.028L271.255 238.121Z" fill="#E4897B"/>
<path d="M216.02 451.659L215.526 463.06H205.971L206.465 451.659H216.02Z" fill="#CE6F64"/>
<path d="M138.046 420.914L146.041 426.153L136.941 433.823L128.959 428.597L138.046 420.914Z" fill="#CE6F64"/>
<path d="M179.737 143.949C180.309 153.4 180.166 158.977 184.937 163.826C192.113 171.145 203.8 166.816 206.062 157.326C208.103 148.824 206.829 134.784 197.573 131.014C195.531 130.189 193.312 129.898 191.126 130.165C188.94 130.433 186.858 131.252 185.075 132.545C183.292 133.838 181.867 135.563 180.933 137.557C179.999 139.552 179.588 141.751 179.737 143.949Z" fill="#E4897B"/>
<path d="M168.609 142.285C170.962 150.904 176.5 160.836 183.663 161.473C192.555 162.253 196.572 153.062 197.742 143.572C203.072 139.919 200.277 135.902 205.62 135.395C212.484 134.745 210.287 122.187 201.252 120.172C201.252 120.172 204.281 125.827 197.924 122.967C191.878 120.094 185.162 118.93 178.502 119.6C178.502 119.6 186.614 123.656 178.684 125.463C170.754 127.27 168.388 132.158 172.041 135.109C172.041 135.122 167.062 136.617 168.609 142.285Z" fill="#263238"/>
<path d="M192.32 145.522C192.495 147.871 193.441 150.097 195.011 151.853C197.091 154.154 199.262 152.724 199.626 149.929C199.964 147.42 199.275 143.195 196.727 141.921C194.179 140.647 192.151 142.688 192.32 145.522Z" fill="#E4897B"/>
<path d="M195.831 261.053C195.831 261.053 205.139 328.458 197.807 355.472C186.185 398.242 141.751 434.343 141.751 434.343L126.684 424.463C126.684 424.463 164.527 393.978 169.155 358.163C173.315 326.014 162.876 287.131 162.876 261.04L195.831 261.053Z" fill="#0A69D7"/>
<path opacity="0.1" d="M195.831 261.053C195.831 261.053 205.139 328.458 197.807 355.472C186.185 398.242 141.751 434.343 141.751 434.343L126.684 424.463C126.684 424.463 164.527 393.978 169.155 358.163C173.315 326.014 162.876 287.131 162.876 261.04L195.831 261.053Z" fill="black"/>
<path d="M199.676 299.585C197.198 296.746 194.47 294.136 191.525 291.785C193.111 313.664 194.411 346.073 192.968 369.096C194.909 364.682 196.525 360.133 197.804 355.485C201.379 342.29 201.002 319.501 199.676 299.585Z" fill="#0A69D7"/>
<path opacity="0.3" d="M199.676 299.585C197.198 296.746 194.47 294.136 191.525 291.785C193.111 313.664 194.411 346.073 192.968 369.096C194.909 364.682 196.525 360.133 197.804 355.485C201.379 342.29 201.002 319.501 199.676 299.585Z" fill="black"/>
<path d="M147.822 430.976C147.887 430.976 141.985 434.876 141.985 434.876L125.527 424.086L130.727 419.783L147.822 430.976Z" fill="#0A69D7"/>
<path opacity="0.3" d="M147.822 430.976C147.887 430.976 141.985 434.876 141.985 434.876L125.527 424.086L130.727 419.783L147.822 430.976Z" fill="black"/>
<path d="M213.952 261.053C213.952 261.053 228.33 322.023 229.344 351.156C230.488 383.812 219.087 460.85 219.087 460.85H202.902C202.902 460.85 200.913 383.214 200.198 353.47C199.405 321.035 180.373 261.053 180.373 261.053H213.952Z" fill="#0A69D7"/>
<path opacity="0.1" d="M213.952 261.053C213.952 261.053 228.33 322.023 229.344 351.156C230.488 383.812 219.087 460.85 219.087 460.85H202.902C202.902 460.85 200.913 383.214 200.198 353.47C199.405 321.035 180.373 261.053 180.373 261.053H213.952Z" fill="black"/>
<path d="M222.195 454.415C222.273 454.415 221.285 461.123 221.285 461.123H201.603L201.07 455.13L222.195 454.415Z" fill="#0A69D7"/>
<path opacity="0.3" d="M222.195 454.415C222.273 454.415 221.285 461.123 221.285 461.123H201.603L201.07 455.13L222.195 454.415Z" fill="black"/>
<path d="M462.802 202.462C463.907 203.502 464.778 204.386 465.688 205.374C466.598 206.362 467.456 207.324 468.288 208.325C469.978 210.314 471.564 212.407 473.098 214.513C476.162 218.737 478.887 223.197 481.249 227.851L481.73 228.8C481.965 229.259 482.161 229.738 482.315 230.23C482.629 231.181 482.821 232.168 482.887 233.168C482.972 234.931 482.729 236.694 482.172 238.368C481.223 241.149 479.812 243.751 477.999 246.064C474.733 250.259 470.88 253.963 466.559 257.062L463.322 253.344C464.843 251.563 466.429 249.652 467.846 247.741C469.288 245.889 470.592 243.934 471.746 241.891C472.825 240.108 473.623 238.17 474.112 236.145C474.28 235.42 474.311 234.671 474.203 233.935C474.157 233.687 474.078 233.447 473.969 233.22C473.921 233.12 473.864 233.025 473.8 232.934L473.384 232.232C470.877 228.144 468.156 224.191 465.233 220.389C463.79 218.478 462.243 216.645 460.683 214.838C459.916 213.928 459.123 213.044 458.33 212.16C457.537 211.276 456.679 210.392 455.99 209.703L462.802 202.462Z" fill="#E4897B"/>
<path d="M464.57 252.252L454.859 250.666L459.942 259.168C459.942 259.168 466.195 258.947 467.976 255.268L464.57 252.252Z" fill="#E4897B"/>
<path d="M447.684 254.592L452.312 261.495L459.943 259.168L454.86 250.666L447.684 254.592Z" fill="#E4897B"/>
<path d="M464.102 474.149C463.442 474.206 462.783 474.026 462.243 473.642C462.08 473.488 461.96 473.295 461.894 473.08C461.828 472.866 461.818 472.639 461.866 472.42C461.875 472.28 461.923 472.146 462.003 472.031C462.083 471.917 462.193 471.827 462.321 471.77C463.452 471.263 466.416 473.161 466.754 473.382C466.792 473.406 466.822 473.441 466.839 473.484C466.855 473.526 466.857 473.572 466.845 473.616C466.84 473.66 466.821 473.702 466.79 473.735C466.76 473.768 466.72 473.79 466.676 473.798C465.834 474.012 464.97 474.129 464.102 474.149ZM462.802 472.134C462.707 472.119 462.611 472.119 462.516 472.134C462.459 472.161 462.41 472.203 462.376 472.256C462.341 472.308 462.322 472.37 462.321 472.433C462.286 472.578 462.29 472.73 462.331 472.873C462.372 473.016 462.449 473.147 462.555 473.252C463.049 473.694 464.323 473.759 466.026 473.421C465.05 472.776 463.953 472.338 462.802 472.134Z" fill="#0A69D7"/>
<path d="M466.701 473.785H466.584C465.661 473.252 463.88 471.185 464.101 470.054C464.143 469.876 464.242 469.716 464.382 469.599C464.523 469.482 464.698 469.413 464.881 469.404C465.056 469.379 465.235 469.394 465.404 469.448C465.573 469.502 465.728 469.594 465.856 469.716C466.922 470.652 466.935 473.46 466.935 473.616C466.932 473.656 466.92 473.694 466.9 473.728C466.88 473.762 466.852 473.79 466.818 473.811L466.701 473.785ZM465.037 469.885H464.933C464.647 469.885 464.582 470.041 464.556 470.158C464.426 470.821 465.531 472.407 466.454 473.148C466.477 472.058 466.163 470.986 465.557 470.08C465.479 470.007 465.387 469.952 465.286 469.919C465.185 469.885 465.078 469.874 464.972 469.885H465.037Z" fill="#0A69D7"/>
<path d="M419.798 474.149C418.968 474.228 418.136 474.017 417.445 473.551C417.289 473.413 417.169 473.239 417.094 473.044C417.019 472.85 416.993 472.64 417.016 472.433C417.024 472.307 417.065 472.184 417.133 472.078C417.201 471.971 417.295 471.883 417.406 471.822C418.615 471.146 422.489 473.122 422.931 473.369C422.971 473.395 423.004 473.432 423.025 473.476C423.045 473.52 423.053 473.568 423.048 473.616C423.04 473.662 423.019 473.704 422.986 473.736C422.954 473.769 422.912 473.791 422.866 473.798C421.857 474.012 420.83 474.13 419.798 474.149ZM418.069 472.134C417.92 472.124 417.772 472.156 417.64 472.225C417.593 472.247 417.554 472.282 417.526 472.326C417.499 472.37 417.484 472.42 417.484 472.472C417.464 472.607 417.477 472.746 417.523 472.875C417.568 473.004 417.644 473.12 417.744 473.213C418.342 473.746 419.941 473.837 422.099 473.473C420.841 472.803 419.478 472.35 418.069 472.134Z" fill="#0A69D7"/>
<path d="M422.826 473.785H422.722C421.565 473.265 419.264 471.185 419.446 470.054C419.446 469.794 419.68 469.469 420.317 469.404C420.549 469.379 420.785 469.402 421.008 469.471C421.232 469.54 421.439 469.655 421.617 469.807C422.839 470.821 423.073 473.447 423.073 473.564C423.078 473.604 423.072 473.644 423.056 473.681C423.04 473.717 423.014 473.749 422.982 473.772C422.933 473.793 422.878 473.798 422.826 473.785ZM420.499 469.885H420.356C419.94 469.885 419.914 470.093 419.901 470.145C419.797 470.808 421.357 472.459 422.501 473.174C422.388 472.063 421.934 471.014 421.201 470.171C421.003 470.003 420.757 469.903 420.499 469.885Z" fill="#0A69D7"/>
<path d="M438.192 172.575C437.815 178.451 436.801 190.385 441.312 193.687C441.312 193.687 440.493 199.706 429.846 201.11C418.146 202.631 423.489 196.027 423.489 196.027C429.69 193.661 428.897 188.942 427.207 184.626L438.192 172.575Z" fill="#E4897B"/>
<path d="M413.972 162.188C413.908 162.188 413.844 162.174 413.786 162.147C413.728 162.12 413.676 162.081 413.634 162.032C413.263 161.591 412.792 161.243 412.262 161.018C411.731 160.792 411.155 160.694 410.579 160.732C410.519 160.743 410.456 160.742 410.396 160.728C410.336 160.714 410.279 160.688 410.229 160.651C410.179 160.615 410.137 160.569 410.106 160.515C410.074 160.462 410.054 160.403 410.046 160.342C410.032 160.22 410.066 160.096 410.141 159.999C410.216 159.902 410.327 159.838 410.449 159.822C411.183 159.76 411.921 159.876 412.601 160.162C413.28 160.447 413.88 160.892 414.349 161.46C414.406 161.528 414.442 161.61 414.453 161.697C414.465 161.785 414.452 161.874 414.415 161.954C414.378 162.034 414.32 162.102 414.246 162.15C414.172 162.199 414.086 162.225 413.998 162.227L413.972 162.188Z" fill="#263238"/>
<path d="M411.945 167.947C411.484 169.812 410.771 171.605 409.826 173.277C410.26 173.511 410.74 173.646 411.232 173.673C411.724 173.7 412.216 173.618 412.673 173.433L411.945 167.947Z" fill="#DE5753"/>
<path d="M412.464 166.517C412.568 167.297 412.243 167.973 411.736 168.051C411.229 168.129 410.722 167.531 410.631 166.751C410.54 165.971 410.852 165.295 411.359 165.23C411.866 165.165 412.373 165.685 412.464 166.517Z" fill="#263238"/>
<path d="M411.595 165.243L409.658 164.944C409.658 164.944 410.802 166.283 411.595 165.243Z" fill="#263238"/>
<path d="M433.539 473.577H423.789L423.139 451.022H432.889L433.539 473.577Z" fill="#E4897B"/>
<path d="M477.803 473.577H468.053L464.92 451.022H474.67L477.803 473.577Z" fill="#E4897B"/>
<path d="M467.456 472.485H478.402C478.589 472.483 478.769 472.55 478.911 472.672C479.052 472.794 479.144 472.963 479.169 473.148L480.469 481.819C480.493 482.037 480.47 482.259 480.402 482.468C480.335 482.677 480.224 482.87 480.076 483.033C479.929 483.196 479.749 483.326 479.548 483.415C479.346 483.504 479.129 483.549 478.909 483.548C475.1 483.483 473.254 483.262 468.444 483.262C465.48 483.262 461.151 483.561 457.069 483.561C452.987 483.561 452.766 479.518 454.469 479.154C462.1 477.516 463.309 475.254 465.87 473.083C466.317 472.712 466.875 472.501 467.456 472.485Z" fill="#263238"/>
<path d="M423.464 472.485H434.397C434.585 472.483 434.768 472.549 434.911 472.671C435.054 472.792 435.149 472.962 435.177 473.148L436.477 481.819C436.501 482.038 436.478 482.259 436.411 482.468C436.343 482.677 436.232 482.87 436.085 483.033C435.937 483.196 435.757 483.327 435.556 483.415C435.355 483.504 435.137 483.549 434.917 483.548C431.108 483.483 429.262 483.262 424.452 483.262C421.488 483.262 415.352 483.561 411.27 483.561C407.188 483.561 406.967 479.518 408.67 479.154C416.301 477.516 419.304 475.254 421.878 473.083C422.325 472.712 422.883 472.501 423.464 472.485Z" fill="#263238"/>
<path d="M423.139 451.022L423.477 462.657H433.227L432.889 451.022H423.139Z" fill="#CE6F64"/>
<path d="M474.67 451.022H464.92L466.545 462.657H476.282L474.67 451.022Z" fill="#CE6F64"/>
<path d="M438.323 160.407C438.986 170.053 439.467 174.122 435.281 179.673C428.976 188.006 416.99 186.719 413.454 177.463C410.269 169.13 409.723 154.765 418.589 149.721C420.539 148.603 422.743 148.002 424.991 147.975C427.239 147.948 429.456 148.496 431.433 149.566C433.41 150.637 435.08 152.194 436.286 154.092C437.492 155.989 438.193 158.163 438.323 160.407Z" fill="#E4897B"/>
<path d="M443.937 169.364C449.345 172.38 453.362 164.944 453.362 164.944C453.362 164.944 443.664 165.997 444.535 160.225C445.679 152.568 440.193 143.26 426.439 144.456C425.672 144.521 424.944 144.612 424.229 144.729C422.789 144.047 421.161 143.87 419.608 144.229C418.055 144.588 416.669 145.46 415.675 146.705C411.775 147.03 406.51 151.684 410.085 157.833C410.336 157.127 410.724 156.477 411.229 155.922C411.528 159.523 414.674 165.243 418.6 165.62C419.445 170.547 416.169 176.254 417.3 181.402C418.977 188.825 431.496 190.502 431.496 190.502C431.064 189.575 430.903 188.545 431.032 187.531C431.161 186.516 431.574 185.559 432.224 184.769C440.726 188.669 446.329 184.86 446.329 184.86C440.531 182.702 442.286 178.854 442.286 178.854C444.288 179.743 446.556 179.821 448.615 179.072C450.673 178.323 452.36 176.805 453.323 174.837C451.397 174.929 449.486 174.46 447.82 173.489C446.154 172.518 444.806 171.085 443.937 169.364Z" fill="#263238"/>
<path d="M421.996 167.102C422.019 168.028 421.858 168.949 421.524 169.812C421.189 170.676 420.687 171.464 420.046 172.133C418.33 173.914 416.224 172.666 415.652 170.391C415.145 168.337 415.431 164.944 417.667 164.008C418.159 163.815 418.692 163.747 419.216 163.812C419.741 163.877 420.241 164.072 420.672 164.38C421.102 164.687 421.448 165.097 421.68 165.573C421.911 166.048 422.02 166.574 421.996 167.102Z" fill="#E4897B"/>
<path d="M430.094 256.971C430.094 256.971 432.564 321.139 438.44 358.813C443.172 389.259 464.193 460.395 464.193 460.395H477.479C477.479 460.395 466.52 391.69 464.115 361.595C458.031 285.428 473.826 269.074 458.915 253.214L430.094 256.971Z" fill="#263238"/>
<path d="M441.196 277.264C441.196 277.264 435.19 276.224 431.68 287.664C432.98 309.335 435.203 338.091 438.44 358.813C439.155 363.428 440.247 368.992 441.586 375.089C439.051 338.481 441.196 277.264 441.196 277.264Z" fill="#161F33"/>
<path d="M419.732 258.323C419.732 258.323 408.786 329.316 409.423 359.021C410.086 389.922 421.409 460.421 421.409 460.421H434.578C434.578 460.421 432.498 391.755 433.655 361.413C434.955 328.328 448.462 254.592 448.462 254.592L419.732 258.323Z" fill="#263238"/>
<path d="M479.402 461.019H461.735L460.357 455.091L479.272 455.221L479.402 461.019Z" fill="#0A69D7"/>
<path opacity="0.2" d="M479.402 461.019H461.735L460.357 455.091L479.272 455.221L479.402 461.019Z" fill="black"/>
<path d="M458.252 193.7C463.335 194.194 471.057 208.637 471.057 208.637L458.226 218.478C458.226 218.478 447.605 209.157 448.866 203.918C450.179 198.471 453.377 193.245 458.252 193.7Z" fill="#0A69D7"/>
<path opacity="0.1" d="M458.252 193.7C463.335 194.194 471.057 208.637 471.057 208.637L458.226 218.478C458.226 218.478 447.605 209.157 448.866 203.918C450.179 198.471 453.377 193.245 458.252 193.7Z" fill="black"/>
<path d="M454.417 199.914C453.121 199.565 451.78 199.416 450.439 199.472C449.757 200.893 449.229 202.384 448.866 203.918C447.566 209.118 458.226 218.478 458.226 218.478L459.175 217.75L454.417 199.914Z" fill="#0A69D7"/>
<path opacity="0.3" d="M454.417 199.914C453.121 199.565 451.78 199.416 450.439 199.472C449.757 200.893 449.229 202.384 448.866 203.918C447.566 209.118 458.226 218.478 458.226 218.478L459.175 217.75L454.417 199.914Z" fill="black"/>
<path d="M415.378 213.785C411.673 223.158 407.773 232.687 404.666 242.086C404.458 242.684 404.289 243.256 404.107 243.841L403.665 245.284C403.544 245.709 403.544 246.159 403.665 246.584C404.398 248.209 405.563 249.603 407.032 250.614C410.918 253.403 415.153 255.671 419.629 257.361L418.459 262.145C412.953 261.419 407.629 259.683 402.755 257.023C399.755 255.42 397.311 252.945 395.748 249.925C394.85 247.995 394.538 245.843 394.851 243.737C394.88 243.479 394.923 243.223 394.981 242.97L395.111 242.424L395.332 241.436C395.488 240.773 395.644 240.136 395.813 239.486C397.113 234.286 398.777 229.346 400.532 224.445C402.287 219.544 404.12 214.708 406.187 209.885L415.378 213.785Z" fill="#E4897B"/>
<path d="M407.486 200.629C407.486 200.629 403.092 202.852 419.732 258.323L458.966 253.201C456.21 237.315 454.91 227.474 458.251 193.7C452.625 193.297 446.977 193.297 441.351 193.7C435.361 194.048 429.404 194.83 423.528 196.04C416.001 197.717 407.486 200.629 407.486 200.629Z" fill="#0A69D7"/>
<path opacity="0.1" d="M407.486 200.629C407.486 200.629 403.092 202.852 419.732 258.323L458.966 253.201C456.21 237.315 454.91 227.474 458.251 193.7C452.625 193.297 446.977 193.297 441.351 193.7C435.361 194.048 429.404 194.83 423.528 196.04C416.001 197.717 407.486 200.629 407.486 200.629Z" fill="black"/>
<path d="M459.254 250.822L461.503 254.085C461.672 254.345 461.386 254.657 460.944 254.722L419.799 260.104C419.448 260.104 419.123 260.013 419.071 259.792L418.265 256.321C418.2 256.087 418.486 255.84 418.876 255.788L458.604 250.588C458.723 250.569 458.846 250.581 458.959 250.621C459.073 250.662 459.174 250.731 459.254 250.822Z" fill="#0A69D7"/>
<path opacity="0.2" d="M459.254 250.822L461.503 254.085C461.672 254.345 461.386 254.657 460.944 254.722L419.799 260.104C419.448 260.104 419.123 260.013 419.071 259.792L418.265 256.321C418.2 256.087 418.486 255.84 418.876 255.788L458.604 250.588C458.723 250.569 458.846 250.581 458.959 250.621C459.073 250.662 459.174 250.731 459.254 250.822Z" fill="black"/>
<path d="M454.495 255.957L455.561 255.814C455.769 255.814 455.912 255.658 455.886 255.528L454.794 251.03C454.753 250.953 454.687 250.893 454.606 250.86C454.525 250.827 454.436 250.823 454.352 250.848L453.286 250.978C453.065 250.978 452.922 251.134 452.961 251.277L454.053 255.762C454.079 255.905 454.287 255.983 454.495 255.957Z" fill="#263238"/>
<path d="M428.702 259.285L429.768 259.142C429.976 259.142 430.132 258.986 430.093 258.856L429.001 254.358C428.958 254.282 428.892 254.222 428.813 254.187C428.733 254.152 428.644 254.143 428.559 254.163L427.493 254.306C427.285 254.306 427.129 254.462 427.168 254.592L428.26 259.09C428.286 259.285 428.494 259.363 428.702 259.285Z" fill="#263238"/>
<path d="M409.32 219.453C410.399 224.471 411.92 230.828 414.143 238.875L414.624 218.478L409.32 219.453Z" fill="#0A69D7"/>
<path opacity="0.3" d="M409.32 219.453C410.399 224.471 411.92 230.828 414.143 238.875L414.624 218.478L409.32 219.453Z" fill="black"/>
<path d="M407.485 200.629C402.61 202.592 398.385 219.271 398.385 219.271L415.155 227.435C415.155 227.435 423.254 207.038 419.627 203.06C416 199.082 413.101 198.38 407.485 200.629Z" fill="#0A69D7"/>
<path opacity="0.1" d="M407.485 200.629C402.61 202.592 398.385 219.271 398.385 219.271L415.155 227.435C415.155 227.435 423.254 207.038 419.627 203.06C416 199.082 413.101 198.38 407.485 200.629Z" fill="black"/>
<path d="M436.826 461.019H419.159L417.781 455.091L437.45 455.221L436.826 461.019Z" fill="#0A69D7"/>
<path opacity="0.2" d="M436.826 461.019H419.159L417.781 455.091L437.45 455.221L436.826 461.019Z" fill="black"/>
<path d="M419.901 255.749L418.484 255.164C418.136 255.022 417.756 254.975 417.384 255.028C417.011 255.08 416.659 255.23 416.364 255.462C416.068 255.695 415.839 256.001 415.7 256.351C415.561 256.7 415.517 257.08 415.572 257.452L416.599 264.225C416.648 264.564 416.772 264.888 416.962 265.173C417.152 265.458 417.402 265.698 417.696 265.874C417.989 266.051 418.318 266.16 418.659 266.194C419 266.228 419.344 266.186 419.667 266.071C420.182 265.884 420.665 265.616 421.097 265.278C421.567 264.888 421.939 264.393 422.183 263.833C422.427 263.273 422.536 262.664 422.501 262.054L422.358 259.246C422.333 258.487 422.088 257.752 421.651 257.131C421.215 256.51 420.606 256.029 419.901 255.749Z" fill="#E4897B"/>
</svg>
