<svg width="201" height="45" viewBox="0 0 201 45" fill="none" xmlns="http://www.w3.org/2000/svg">
<path d="M45.8382 11.85H51.7182V28.5H58.2882V33H45.8382V11.85ZM59.6145 24.57C59.6145 19.2 62.7945 15.96 66.7845 15.96C69.1845 15.96 70.8645 17.01 71.7345 18.51V16.17H77.6145V33H71.7345V30.66C70.8645 32.16 69.1545 33.21 66.7845 33.21C62.7945 33.21 59.6145 29.94 59.6145 24.57ZM71.7345 24.57C71.7345 22.32 70.3245 21.09 68.6745 21.09C66.9945 21.09 65.6145 22.29 65.6145 24.57C65.6145 26.82 66.9945 28.08 68.6745 28.08C70.3245 28.08 71.7345 26.85 71.7345 24.57ZM98.1852 16.17V33H92.2752V30.6C91.3152 32.04 89.5452 33.15 87.1752 33.15C83.2752 33.15 80.8452 30.39 80.8452 25.95V16.17H86.6952V25.2C86.6952 27.15 87.8052 28.29 89.4852 28.29C91.1952 28.29 92.2752 27.15 92.2752 25.2V16.17H98.1852ZM112.992 33V23.97C112.992 22.02 111.912 20.88 110.232 20.88C108.492 20.88 107.412 22.02 107.412 23.97V33H101.532V16.17H107.412V18.57C108.402 17.13 110.172 16.02 112.542 16.02C116.442 16.02 118.872 18.78 118.872 23.19V33H112.992ZM121.138 24.57C121.138 19.23 124.648 15.96 129.658 15.96C133.918 15.96 137.038 18.39 137.878 22.62H131.638C131.308 21.6 130.648 20.97 129.538 20.97C128.098 20.97 127.138 22.17 127.138 24.57C127.138 27 128.098 28.2 129.538 28.2C130.648 28.2 131.308 27.6 131.638 26.55H137.878C137.038 30.72 133.918 33.21 129.658 33.21C124.648 33.21 121.138 29.94 121.138 24.57ZM140.321 33V10.8H146.201V18.57C147.191 17.13 148.961 16.02 151.391 16.02C155.231 16.02 157.661 18.78 157.661 23.19V33H151.781V23.97C151.781 22.02 150.701 20.88 149.021 20.88C147.281 20.88 146.201 22.02 146.201 23.97V33H140.321ZM160.887 33V16.17H166.767V33H160.887ZM163.857 14.61C161.757 14.61 160.407 13.29 160.407 11.61C160.407 9.9 161.757 8.55 163.857 8.55C165.927 8.55 167.277 9.9 167.277 11.61C167.277 13.29 165.927 14.61 163.857 14.61ZM170.656 33V21.06H168.826V16.17H170.656V16.02C170.656 11.37 173.686 8.97 179.146 9.36V14.37C177.376 14.19 176.656 14.67 176.566 16.17H179.206V21.06H176.566V33H170.656ZM189.557 25.71L192.977 16.17H199.427L188.747 41.01H182.357L186.377 32.28L179.477 16.17H186.017L189.557 25.71Z" fill="white"/>
<path d="M20.8667 35.5429C17.2282 38.6139 12.473 33.3055 15.8401 29.9385L21.0826 24.6959C22.3038 23.4747 22.9899 21.8184 22.9899 20.0913C22.9899 18.3642 22.3038 16.7079 21.0826 15.4867C19.8613 14.2654 18.205 13.5793 16.4779 13.5793C14.7508 13.5793 13.0945 14.2654 11.8733 15.4867L6.58165 20.7783C3.20039 24.1608 -2.14682 19.4108 0.910019 15.7374C1.43651 15.0922 2.15436 14.631 2.95998 14.4203L10.5963 12.3742L16.2356 10.8633C17.3539 10.5556 18.5276 10.5069 19.6676 10.7207C20.8076 10.9346 21.8838 11.4055 22.8146 12.0976C23.0488 12.2703 23.2735 12.4554 23.488 12.6521L23.5048 12.6689C23.572 12.731 23.634 12.7982 23.7038 12.8602V12.8667C23.7723 12.9339 23.8395 13.0037 23.9042 13.0735L23.9119 13.08C24.1111 13.2959 24.298 13.5229 24.4716 13.7598C25.1621 14.6894 25.6322 15.7638 25.8463 16.9018C26.0603 18.0398 26.0128 19.2116 25.7072 20.3285L24.195 25.9717L22.189 33.458C21.9773 34.2742 21.5148 35.0034 20.8667 35.5429Z" fill="url(#paint0_linear_348_760)"/>
<path style="mix-blend-mode:overlay" d="M23.7067 25.9501C22.7607 26.8989 21.627 27.6395 20.3781 28.1245C19.1292 28.6095 17.7927 28.8282 16.4543 28.7665L21.079 24.1419C22.3002 22.9206 22.9863 21.2643 22.9863 19.5372C22.9863 17.8101 22.3002 16.1538 21.079 14.9326C19.8578 13.7113 18.2014 13.0253 16.4744 13.0253C14.7473 13.0253 13.0909 13.7113 11.8697 14.9326L7.24633 19.556C7.18528 18.218 7.40425 16.8821 7.88924 15.6337C8.37422 14.3853 9.11452 13.252 10.0628 12.3061C10.2347 12.1329 10.4104 11.9688 10.5927 11.8137L16.232 10.3027C17.3503 9.99505 18.5241 9.9463 19.664 10.1602C20.804 10.3741 21.8803 10.845 22.811 11.5371C23.0452 11.7098 23.27 11.8949 23.4844 12.0916L23.5012 12.1084C23.5684 12.1704 23.6305 12.2376 23.7003 12.2997V12.3061C23.7688 12.3734 23.836 12.4431 23.9006 12.5129L23.9083 12.5194C24.1075 12.7353 24.2944 12.9623 24.468 13.1993C25.1595 14.1296 25.6301 15.2051 25.8442 16.3443C26.0583 17.4835 26.0103 18.6565 25.7037 19.7744L24.1914 25.4176C24.0376 25.6037 23.8735 25.7795 23.7067 25.9501Z" fill="url(#paint1_linear_348_760)"/>
<path d="M26.9341 15.5081C26.9749 14.6508 26.8357 13.7945 26.5256 12.9942C26.2155 12.1939 25.7414 11.4674 25.1336 10.8614C24.8168 10.5442 24.4657 10.2633 24.0867 10.0239C23.0157 9.33871 21.7582 9.00355 20.4883 9.06481L25.0832 8.05663C25.4063 7.98515 25.7408 7.98129 26.0654 8.0453C26.3901 8.10932 26.698 8.23981 26.9698 8.42858C27.2416 8.61735 27.4715 8.86032 27.6448 9.1422C27.8182 9.42408 27.9314 9.73879 27.9772 10.0665C28.0163 10.3481 28.0045 10.6344 27.9423 10.9118L26.9341 15.5081Z" fill="url(#paint2_linear_348_760)"/>
<path d="M19.2977 22.3594L14.1637 27.4933C13.4082 28.249 12.3834 28.6737 11.3148 28.6738C10.2462 28.6739 9.2213 28.2495 8.4656 27.494C7.70989 26.7384 7.28528 25.7137 7.28516 24.645C7.28504 23.5764 7.70942 22.5516 8.46495 21.7958L13.5989 16.6722C14.3547 15.9167 15.3796 15.4922 16.4483 15.4922C17.517 15.4922 18.5419 15.9167 19.2977 16.6722C19.3649 16.7395 19.4269 16.808 19.489 16.8791C20.155 17.6479 20.5055 18.6402 20.47 19.6568C20.4346 20.6734 20.0157 21.6389 19.2977 22.3594Z" fill="url(#paint3_linear_348_760)"/>
<path d="M23.7191 21.5039L21.0784 24.1433C22.2808 22.9182 22.9508 21.2679 22.9427 19.5514C22.9346 17.8348 22.2491 16.1909 21.0352 14.9772C19.8213 13.7635 18.1773 13.0782 16.4608 13.0704C14.7443 13.0625 13.0941 13.7327 11.8691 14.9353L14.5098 12.2946C15.1144 11.6898 15.8322 11.2099 16.6223 10.8826C17.4124 10.5552 18.2592 10.3867 19.1144 10.3867C19.9696 10.3867 20.8165 10.5552 21.6066 10.8826C22.3966 11.2099 23.1145 11.6898 23.7191 12.2946C23.9976 12.5724 24.2499 12.8752 24.4726 13.1994C25.3384 14.4531 25.7371 15.9707 25.5995 17.4881C25.4618 19.0055 24.7964 20.4265 23.7191 21.5039Z" fill="url(#paint4_linear_348_760)"/>
<path style="mix-blend-mode:overlay" d="M19.2969 22.3561L14.163 27.49C13.756 27.9045 13.2639 28.2256 12.7205 28.431C11.8946 27.279 11.4204 25.9123 11.3554 24.4963C11.2904 23.0803 11.6373 21.6758 12.3542 20.453C13.0711 19.2301 14.1271 18.2414 15.3944 17.6065C16.6618 16.9716 18.086 16.7178 19.4947 16.8758C20.1599 17.6454 20.5093 18.6382 20.4726 19.6548C20.4359 20.6714 20.0159 21.6365 19.2969 22.3561Z" fill="url(#paint5_linear_348_760)"/>
<path style="mix-blend-mode:overlay" d="M26.9314 15.5095C26.9722 14.6522 26.833 13.7959 26.5229 12.9956C26.2128 12.1954 25.7387 11.4689 25.1309 10.8629C24.8141 10.5457 24.463 10.2648 24.084 10.0253C24.6882 9.72164 25.3563 9.56705 26.0325 9.57447C26.7087 9.58189 27.3732 9.7511 27.9706 10.0679C28.0097 10.3495 27.9979 10.6359 27.9357 10.9133L26.9314 15.5095Z" fill="url(#paint6_linear_348_760)"/>
<defs>
<linearGradient id="paint0_linear_348_760" x1="8.05947" y1="28.4609" x2="27.0981" y2="9.42228" gradientUnits="userSpaceOnUse">
<stop stop-color="white"/>
<stop offset="1" stop-color="white"/>
</linearGradient>
<linearGradient id="paint1_linear_348_760" x1="10.8938" y1="11.3542" x2="24.5995" y2="25.0599" gradientUnits="userSpaceOnUse">
<stop stop-color="white" stop-opacity="0.7"/>
<stop offset="1" stop-color="white"/>
</linearGradient>
<linearGradient id="paint2_linear_348_760" x1="28.1343" y1="11.3879" x2="20.8866" y2="12.7296" gradientUnits="userSpaceOnUse">
<stop stop-color="white"/>
<stop offset="1" stop-color="white"/>
</linearGradient>
<linearGradient id="paint3_linear_348_760" x1="19.167" y1="16.7985" x2="8.6227" y2="27.3429" gradientUnits="userSpaceOnUse">
<stop stop-color="white"/>
<stop offset="1" stop-color="white"/>
</linearGradient>
<linearGradient id="paint4_linear_348_760" x1="15.4921" y1="11.3128" x2="24.7011" y2="20.5218" gradientUnits="userSpaceOnUse">
<stop stop-color="white"/>
<stop offset="1" stop-color="white"/>
</linearGradient>
<linearGradient id="paint5_linear_348_760" x1="11.829" y1="28.0479" x2="18.5777" y2="17.0018" gradientUnits="userSpaceOnUse">
<stop stop-color="white"/>
<stop offset="1" stop-color="white"/>
</linearGradient>
<linearGradient id="paint6_linear_348_760" x1="26.7077" y1="15.0781" x2="25.9893" y2="9.72595" gradientUnits="userSpaceOnUse">
<stop stop-color="white" stop-opacity="0.7"/>
<stop offset="1" stop-color="white"/>
</linearGradient>
</defs>
</svg>
