<svg width="325" height="68" viewBox="0 0 325 68" fill="none" xmlns="http://www.w3.org/2000/svg">
<path d="M103.34 43.25H113.195V50H94.52V18.275H103.34V43.25ZM115.184 37.355C115.184 34.745 115.649 32.465 116.579 30.515C117.539 28.565 118.829 27.065 120.449 26.015C122.099 24.965 123.929 24.44 125.939 24.44C127.679 24.44 129.179 24.785 130.439 25.475C131.699 26.165 132.674 27.095 133.364 28.265V24.755H142.184V50H133.364V46.49C132.674 47.66 131.684 48.59 130.394 49.28C129.134 49.97 127.649 50.315 125.939 50.315C123.929 50.315 122.099 49.79 120.449 48.74C118.829 47.69 117.539 46.19 116.579 44.24C115.649 42.26 115.184 39.965 115.184 37.355ZM133.364 37.355C133.364 35.735 132.914 34.46 132.014 33.53C131.144 32.6 130.064 32.135 128.774 32.135C127.454 32.135 126.359 32.6 125.489 33.53C124.619 34.43 124.184 35.705 124.184 37.355C124.184 38.975 124.619 40.265 125.489 41.225C126.359 42.155 127.454 42.62 128.774 42.62C130.064 42.62 131.144 42.155 132.014 41.225C132.914 40.295 133.364 39.005 133.364 37.355ZM173.04 24.755V50H164.175V46.4C163.425 47.54 162.39 48.47 161.07 49.19C159.75 49.88 158.235 50.225 156.525 50.225C153.585 50.225 151.26 49.265 149.55 47.345C147.87 45.395 147.03 42.755 147.03 39.425V24.755H155.805V38.3C155.805 39.74 156.18 40.88 156.93 41.72C157.71 42.53 158.73 42.935 159.99 42.935C161.28 42.935 162.3 42.53 163.05 41.72C163.8 40.88 164.175 39.74 164.175 38.3V24.755H173.04ZM194.575 24.53C197.485 24.53 199.795 25.505 201.505 27.455C203.215 29.375 204.07 31.985 204.07 35.285V50H195.25V36.455C195.25 35.015 194.875 33.89 194.125 33.08C193.375 32.24 192.37 31.82 191.11 31.82C189.79 31.82 188.755 32.24 188.005 33.08C187.255 33.89 186.88 35.015 186.88 36.455V50H178.06V24.755H186.88V28.355C187.66 27.215 188.71 26.3 190.03 25.61C191.35 24.89 192.865 24.53 194.575 24.53ZM207.47 37.355C207.47 34.745 208.01 32.465 209.09 30.515C210.17 28.565 211.67 27.065 213.59 26.015C215.54 24.965 217.76 24.44 220.25 24.44C223.46 24.44 226.16 25.325 228.35 27.095C230.54 28.835 231.95 31.28 232.58 34.43H223.22C222.68 32.78 221.63 31.955 220.07 31.955C218.96 31.955 218.075 32.42 217.415 33.35C216.785 34.25 216.47 35.585 216.47 37.355C216.47 39.125 216.785 40.475 217.415 41.405C218.075 42.335 218.96 42.8 220.07 42.8C221.66 42.8 222.71 41.975 223.22 40.325H232.58C231.95 43.445 230.54 45.89 228.35 47.66C226.16 49.43 223.46 50.315 220.25 50.315C217.76 50.315 215.54 49.79 213.59 48.74C211.67 47.69 210.17 46.19 209.09 44.24C208.01 42.29 207.47 39.995 207.47 37.355ZM252.849 24.53C255.729 24.53 258.009 25.505 259.689 27.455C261.399 29.375 262.254 31.985 262.254 35.285V50H253.434V36.455C253.434 35.015 253.059 33.89 252.309 33.08C251.559 32.24 250.554 31.82 249.294 31.82C247.974 31.82 246.939 32.24 246.189 33.08C245.439 33.89 245.064 35.015 245.064 36.455V50H236.244V16.7H245.064V28.355C245.844 27.215 246.894 26.3 248.214 25.61C249.564 24.89 251.109 24.53 252.849 24.53ZM271.548 22.415C269.988 22.415 268.728 21.995 267.768 21.155C266.838 20.285 266.373 19.205 266.373 17.915C266.373 16.595 266.838 15.5 267.768 14.63C268.728 13.76 269.988 13.325 271.548 13.325C273.078 13.325 274.308 13.76 275.238 14.63C276.198 15.5 276.678 16.595 276.678 17.915C276.678 19.205 276.198 20.285 275.238 21.155C274.308 21.995 273.078 22.415 271.548 22.415ZM275.913 24.755V50H267.093V24.755H275.913ZM294.571 32.09H290.611V50H281.746V32.09H279.001V24.755H281.746V24.53C281.746 21.29 282.691 18.815 284.581 17.105C286.501 15.365 289.246 14.495 292.816 14.495C293.536 14.495 294.091 14.51 294.481 14.54V22.055C294.241 22.025 293.911 22.01 293.491 22.01C292.531 22.01 291.826 22.235 291.376 22.685C290.926 23.105 290.671 23.795 290.611 24.755H294.571V32.09ZM324.903 24.755L308.883 62.015H299.298L305.328 48.92L294.978 24.755H304.788L310.098 39.065L315.228 24.755H324.903Z" fill="white"/>
<path d="M49.1888 64.9341C40.6119 72.1735 29.4024 59.66 37.3395 51.7229L49.6976 39.3648C52.5764 36.486 54.1937 32.5815 54.1937 28.5103C54.1937 24.4391 52.5764 20.5346 49.6976 17.6558C46.8188 14.7771 42.9144 13.1598 38.8432 13.1598C34.7719 13.1598 30.8675 14.7771 27.9887 17.6558L15.5148 30.1297C7.54422 38.1034 -5.06067 26.9061 2.14517 18.2469C3.38627 16.7261 5.07843 15.6389 6.97751 15.1422L24.9784 10.319L38.2719 6.7572C40.9081 6.03194 43.6749 5.91703 46.3621 6.42122C49.0494 6.92541 51.5864 8.03544 53.7804 9.66696C54.3325 10.074 54.8624 10.5104 55.3678 10.9741L55.4074 11.0137C55.5659 11.1599 55.7121 11.3184 55.8767 11.4646V11.4798C56.0382 11.6383 56.1966 11.8028 56.3489 11.9673L56.3672 11.9826C56.8367 12.4916 57.2772 13.0266 57.6865 13.5852C59.3143 15.7764 60.4223 18.3091 60.927 20.9917C61.4316 23.6743 61.3196 26.4365 60.5993 29.0694L57.0345 42.372L52.3057 60.0195C51.8067 61.9435 50.7165 63.6624 49.1888 64.9341Z" fill="url(#paint0_linear_239_756)"/>
<path style="mix-blend-mode:overlay" d="M55.8938 42.3108C53.6638 44.5473 50.9912 46.2931 48.0472 47.4364C45.1031 48.5797 41.9527 49.0952 38.7978 48.9499L49.6995 38.0482C52.5783 35.1694 54.1956 31.265 54.1956 27.1937C54.1956 23.1225 52.5783 19.2181 49.6995 16.3393C46.8207 13.4605 42.9162 11.8432 38.845 11.8432C34.7738 11.8432 30.8694 13.4605 27.9906 16.3393L17.0919 27.2379C16.948 24.0841 17.4642 20.935 18.6074 17.9921C19.7507 15.0493 21.4958 12.3776 23.7311 10.1481C24.1363 9.73977 24.5507 9.35282 24.9803 8.9872L38.2737 5.42541C40.9099 4.70015 43.6768 4.58525 46.364 5.08944C49.0513 5.59363 51.5883 6.70365 53.7823 8.33517C54.3344 8.74225 54.8643 9.17858 55.3697 9.64227L55.4093 9.68188C55.5678 9.82813 55.714 9.98657 55.8785 10.1328V10.1481C56.04 10.3065 56.1985 10.471 56.3508 10.6356L56.3691 10.6508C56.8386 11.1598 57.2791 11.6948 57.6884 12.2534C59.3184 14.4464 60.4278 16.9817 60.9325 19.6672C61.4372 22.3526 61.3239 25.1177 60.6012 27.7528L57.0363 41.0555C56.6738 41.4942 56.2868 41.9086 55.8938 42.3108Z" fill="url(#paint1_linear_239_756)"/>
<path d="M63.4877 17.6987C63.5837 15.6778 63.2557 13.6593 62.5247 11.7728C61.7937 9.88633 60.676 8.17375 59.2434 6.7452C58.4966 5.99751 57.6688 5.33531 56.7754 4.77084C54.2509 3.15572 51.2865 2.36565 48.293 2.51006L59.1246 0.133501C59.8862 -0.0350021 60.6746 -0.0440942 61.4399 0.106797C62.2053 0.257688 62.9311 0.565297 63.5719 1.01028C64.2126 1.45527 64.7543 2.02801 65.163 2.69249C65.5716 3.35697 65.8384 4.09881 65.9465 4.87138C66.0386 5.53516 66.0107 6.2101 65.8642 6.86403L63.4877 17.6987Z" fill="url(#paint2_linear_239_756)"/>
<path d="M45.4966 33.8468L33.3944 45.9489C31.6134 47.7304 29.1977 48.7313 26.6787 48.7316C24.1597 48.7319 21.7437 47.7315 19.9623 45.9505C18.1809 44.1695 17.18 41.7537 17.1797 39.2347C17.1794 36.7157 18.1798 34.2998 19.9608 32.5183L32.063 20.4406C33.8445 18.6594 36.2606 17.6588 38.7798 17.6588C41.299 17.6588 43.715 18.6594 45.4966 20.4406C45.655 20.599 45.8013 20.7605 45.9475 20.9281C47.5176 22.7403 48.3439 25.0796 48.2602 27.476C48.1766 29.8724 47.1892 32.1484 45.4966 33.8468Z" fill="url(#paint3_linear_239_756)"/>
<path d="M55.9103 31.8268L49.6855 38.0485C52.5198 35.1606 54.0992 31.2704 54.0801 27.224C54.061 23.1777 52.445 19.3026 49.5835 16.4415C46.7221 13.5805 42.8467 11.965 38.8004 11.9465C34.7541 11.928 30.8641 13.5079 27.9766 16.3426L34.2013 10.1179C35.6265 8.69202 37.3187 7.56095 39.1811 6.78925C41.0436 6.01756 43.0398 5.62036 45.0558 5.62036C47.0718 5.62036 49.068 6.01756 50.9305 6.78925C52.7929 7.56095 54.4851 8.69202 55.9103 10.1179C56.5668 10.7726 57.1614 11.4865 57.6866 12.2507C59.7274 15.206 60.6674 18.7835 60.3428 22.3604C60.0183 25.9372 58.4497 29.287 55.9103 31.8268Z" fill="url(#paint4_linear_239_756)"/>
<path style="mix-blend-mode:overlay" d="M45.4945 33.8467L33.3924 45.9489C32.4331 46.926 31.2729 47.6828 29.9921 48.167C28.0451 45.4514 26.9273 42.2296 26.7741 38.8917C26.6208 35.5538 27.4386 32.2431 29.1285 29.3605C30.8184 26.4779 33.3078 24.1472 36.2953 22.6505C39.2828 21.1539 42.6401 20.5555 45.9607 20.928C47.5288 22.7422 48.3524 25.0825 48.2659 27.479C48.1795 29.8754 47.1894 32.1503 45.4945 33.8467Z" fill="url(#paint5_linear_239_756)"/>
<path style="mix-blend-mode:overlay" d="M63.4876 17.6988C63.5837 15.678 63.2556 13.6594 62.5247 11.7729C61.7937 9.88644 60.676 8.17386 59.2434 6.74532C58.4965 5.99763 57.6688 5.33543 56.7754 4.77095C58.1997 4.05515 59.7746 3.69075 61.3686 3.70824C62.9625 3.72574 64.5291 4.12461 65.9373 4.8715C66.0294 5.53528 66.0016 6.21021 65.8551 6.86415L63.4876 17.6988Z" fill="url(#paint6_linear_239_756)"/>
<defs>
<linearGradient id="paint0_linear_239_756" x1="18.9985" y1="48.2399" x2="63.8781" y2="3.36039" gradientUnits="userSpaceOnUse">
<stop stop-color="white"/>
<stop offset="1" stop-color="white"/>
</linearGradient>
<linearGradient id="paint1_linear_239_756" x1="25.6899" y1="7.90395" x2="57.9982" y2="40.2122" gradientUnits="userSpaceOnUse">
<stop stop-color="white" stop-opacity="0.7"/>
<stop offset="1" stop-color="white"/>
</linearGradient>
<linearGradient id="paint2_linear_239_756" x1="66.3168" y1="7.98632" x2="49.232" y2="11.1491" gradientUnits="userSpaceOnUse">
<stop stop-color="white"/>
<stop offset="1" stop-color="white"/>
</linearGradient>
<linearGradient id="paint3_linear_239_756" x1="45.1887" y1="20.7383" x2="20.3326" y2="45.5942" gradientUnits="userSpaceOnUse">
<stop stop-color="white"/>
<stop offset="1" stop-color="white"/>
</linearGradient>
<linearGradient id="paint4_linear_239_756" x1="36.5169" y1="7.80336" x2="58.2253" y2="29.5117" gradientUnits="userSpaceOnUse">
<stop stop-color="white"/>
<stop offset="1" stop-color="white"/>
</linearGradient>
<linearGradient id="paint5_linear_239_756" x1="27.8906" y1="47.2639" x2="43.7992" y2="21.2251" gradientUnits="userSpaceOnUse">
<stop stop-color="white"/>
<stop offset="1" stop-color="white"/>
</linearGradient>
<linearGradient id="paint6_linear_239_756" x1="62.9601" y1="16.6818" x2="61.2667" y2="4.06532" gradientUnits="userSpaceOnUse">
<stop stop-color="white" stop-opacity="0.7"/>
<stop offset="1" stop-color="white"/>
</linearGradient>
</defs>
</svg>
