<svg width="259" height="54" viewBox="0 0 259 54" fill="none" xmlns="http://www.w3.org/2000/svg">
<path d="M81.072 34.6H88.956V40H74.016V14.62H81.072V34.6ZM90.5476 29.884C90.5476 27.796 90.9196 25.972 91.6636 24.412C92.4316 22.852 93.4636 21.652 94.7596 20.812C96.0796 19.972 97.5436 19.552 99.1516 19.552C100.544 19.552 101.744 19.828 102.752 20.38C103.76 20.932 104.54 21.676 105.092 22.612V19.804H112.148V40H105.092V37.192C104.54 38.128 103.748 38.872 102.716 39.424C101.708 39.976 100.52 40.252 99.1516 40.252C97.5436 40.252 96.0796 39.832 94.7596 38.992C93.4636 38.152 92.4316 36.952 91.6636 35.392C90.9196 33.808 90.5476 31.972 90.5476 29.884ZM105.092 29.884C105.092 28.588 104.732 27.568 104.012 26.824C103.316 26.08 102.452 25.708 101.42 25.708C100.364 25.708 99.4876 26.08 98.7916 26.824C98.0956 27.544 97.7476 28.564 97.7476 29.884C97.7476 31.18 98.0956 32.212 98.7916 32.98C99.4876 33.724 100.364 34.096 101.42 34.096C102.452 34.096 103.316 33.724 104.012 32.98C104.732 32.236 105.092 31.204 105.092 29.884ZM136.832 19.804V40H129.74V37.12C129.14 38.032 128.312 38.776 127.256 39.352C126.2 39.904 124.988 40.18 123.62 40.18C121.268 40.18 119.408 39.412 118.04 37.876C116.696 36.316 116.024 34.204 116.024 31.54V19.804H123.044V30.64C123.044 31.792 123.344 32.704 123.944 33.376C124.568 34.024 125.384 34.348 126.392 34.348C127.424 34.348 128.24 34.024 128.84 33.376C129.44 32.704 129.74 31.792 129.74 30.64V19.804H136.832ZM154.06 19.624C156.388 19.624 158.236 20.404 159.604 21.964C160.972 23.5 161.656 25.588 161.656 28.228V40H154.6V29.164C154.6 28.012 154.3 27.112 153.7 26.464C153.1 25.792 152.296 25.456 151.288 25.456C150.232 25.456 149.404 25.792 148.804 26.464C148.204 27.112 147.904 28.012 147.904 29.164V40H140.848V19.804H147.904V22.684C148.528 21.772 149.368 21.04 150.424 20.488C151.48 19.912 152.692 19.624 154.06 19.624ZM164.376 29.884C164.376 27.796 164.808 25.972 165.672 24.412C166.536 22.852 167.736 21.652 169.272 20.812C170.832 19.972 172.608 19.552 174.6 19.552C177.168 19.552 179.328 20.26 181.08 21.676C182.832 23.068 183.96 25.024 184.464 27.544H176.976C176.544 26.224 175.704 25.564 174.456 25.564C173.568 25.564 172.86 25.936 172.332 26.68C171.828 27.4 171.576 28.468 171.576 29.884C171.576 31.3 171.828 32.38 172.332 33.124C172.86 33.868 173.568 34.24 174.456 34.24C175.728 34.24 176.568 33.58 176.976 32.26H184.464C183.96 34.756 182.832 36.712 181.08 38.128C179.328 39.544 177.168 40.252 174.6 40.252C172.608 40.252 170.832 39.832 169.272 38.992C167.736 38.152 166.536 36.952 165.672 35.392C164.808 33.832 164.376 31.996 164.376 29.884ZM200.679 19.624C202.983 19.624 204.807 20.404 206.151 21.964C207.519 23.5 208.203 25.588 208.203 28.228V40H201.147V29.164C201.147 28.012 200.847 27.112 200.247 26.464C199.647 25.792 198.843 25.456 197.835 25.456C196.779 25.456 195.951 25.792 195.351 26.464C194.751 27.112 194.451 28.012 194.451 29.164V40H187.395V13.36H194.451V22.684C195.075 21.772 195.915 21.04 196.971 20.488C198.051 19.912 199.287 19.624 200.679 19.624ZM215.639 17.932C214.391 17.932 213.383 17.596 212.615 16.924C211.871 16.228 211.499 15.364 211.499 14.332C211.499 13.276 211.871 12.4 212.615 11.704C213.383 11.008 214.391 10.66 215.639 10.66C216.863 10.66 217.847 11.008 218.591 11.704C219.359 12.4 219.743 13.276 219.743 14.332C219.743 15.364 219.359 16.228 218.591 16.924C217.847 17.596 216.863 17.932 215.639 17.932ZM219.131 19.804V40H212.075V19.804H219.131ZM234.057 25.672H230.889V40H223.797V25.672H221.601V19.804H223.797V19.624C223.797 17.032 224.553 15.052 226.065 13.684C227.601 12.292 229.797 11.596 232.653 11.596C233.229 11.596 233.673 11.608 233.985 11.632V17.644C233.793 17.62 233.529 17.608 233.193 17.608C232.425 17.608 231.861 17.788 231.501 18.148C231.141 18.484 230.937 19.036 230.889 19.804H234.057V25.672ZM258.323 19.804L245.507 49.612H237.839L242.663 39.136L234.382 19.804H242.231L246.479 31.252L250.583 19.804H258.323Z" fill="#01002E"/>
<path d="M33.5378 48.3761C27.6899 53.312 20.0471 44.7801 25.4588 39.3684L33.8847 30.9424C35.8475 28.9796 36.9502 26.3175 36.9502 23.5416C36.9502 20.7658 35.8475 18.1037 33.8847 16.1409C31.9219 14.178 29.2598 13.0754 26.484 13.0754C23.7081 13.0754 21.046 14.178 19.0832 16.1409L10.5783 24.6458C5.14379 30.0824 -3.45045 22.4479 1.46262 16.5439C2.30882 15.507 3.46257 14.7657 4.75739 14.427L17.0307 11.1385L26.0945 8.70996C27.8919 8.21546 29.7783 8.13712 31.6106 8.48088C33.4428 8.82465 35.1726 9.58149 36.6685 10.6939C37.0449 10.9714 37.4062 11.2689 37.7508 11.5851L37.7778 11.6121C37.8858 11.7118 37.9855 11.8198 38.0977 11.9196V11.9299C38.2078 12.038 38.3159 12.1502 38.4197 12.2623L38.4322 12.2727C38.7523 12.6198 39.0526 12.9846 39.3317 13.3654C40.4415 14.8594 41.1971 16.5863 41.5411 18.4153C41.8852 20.2443 41.8088 22.1277 41.3177 23.9228L38.8871 32.9928L35.663 45.0252C35.3227 46.337 34.5794 47.509 33.5378 48.3761Z" fill="url(#paint0_linear_195_756)"/>
<path style="mix-blend-mode:overlay" d="M38.1086 33.8488C36.5882 35.3737 34.7659 36.5641 32.7587 37.3436C30.7514 38.1231 28.6033 38.4746 26.4523 38.3755L33.8852 30.9425C35.848 28.9797 36.9507 26.3176 36.9507 23.5417C36.9507 20.7659 35.848 18.1038 33.8852 16.141C31.9224 14.1782 29.2603 13.0755 26.4845 13.0755C23.7086 13.0755 21.0465 14.1782 19.0837 16.141L11.6528 23.5719C11.5547 21.4215 11.9066 19.2744 12.6861 17.2679C13.4656 15.2615 14.6554 13.4398 16.1795 11.9197C16.4558 11.6413 16.7383 11.3775 17.0312 11.1282L26.0949 8.6997C27.8924 8.20521 29.7788 8.12687 31.611 8.47063C33.4433 8.8144 35.173 9.57123 36.669 10.6836C37.0454 10.9612 37.4067 11.2587 37.7513 11.5748L37.7783 11.6018C37.8863 11.7016 37.986 11.8096 38.0982 11.9093V11.9197C38.2083 12.0277 38.3163 12.1399 38.4202 12.2521L38.4327 12.2625C38.7528 12.6095 39.0531 12.9743 39.3322 13.3552C40.4436 14.8504 41.2 16.579 41.5441 18.41C41.8882 20.241 41.811 22.1263 41.3182 23.923L38.8876 32.9929C38.6404 33.2921 38.3766 33.5746 38.1086 33.8488Z" fill="url(#paint1_linear_195_756)"/>
<path d="M43.2878 17.0673C43.3532 15.6894 43.1296 14.3131 42.6312 13.0269C42.1328 11.7407 41.3707 10.573 40.3939 9.59901C39.8848 9.08922 39.3204 8.63772 38.7112 8.25285C36.9899 7.15163 34.9688 6.61294 32.9277 6.71141L40.3129 5.09102C40.8323 4.97613 41.3697 4.96994 41.8916 5.07282C42.4134 5.1757 42.9083 5.38543 43.3452 5.68883C43.782 5.99223 44.1514 6.38274 44.43 6.83579C44.7087 7.28885 44.8906 7.79465 44.9643 8.3214C45.027 8.77398 45.008 9.23416 44.9082 9.68003L43.2878 17.0673Z" fill="url(#paint2_linear_195_756)"/>
<path d="M31.0199 28.0778L22.7684 36.3293C21.5541 37.5439 19.907 38.2263 18.1895 38.2265C16.472 38.2267 14.8247 37.5446 13.6101 36.3303C12.3955 35.116 11.7131 33.4689 11.7129 31.7514C11.7127 30.0339 12.3948 28.3866 13.6091 27.172L21.8606 18.9372C23.0753 17.7228 24.7226 17.0405 26.4402 17.0405C28.1579 17.0405 29.8052 17.7228 31.0199 18.9372C31.1279 19.0452 31.2276 19.1553 31.3273 19.2696C32.3979 20.5052 32.9612 22.1002 32.9042 23.7341C32.8471 25.368 32.174 26.9198 31.0199 28.0778Z" fill="url(#paint3_linear_195_756)"/>
<path d="M38.1199 26.7001L33.8758 30.9421C35.8083 28.9731 36.8851 26.3207 36.8721 23.5618C36.8591 20.8029 35.7572 18.1608 33.8063 16.2101C31.8553 14.2594 29.213 13.158 26.4541 13.1453C23.6952 13.1327 21.043 14.2099 19.0742 16.1427L23.3184 11.8985C24.2901 10.9263 25.4438 10.1552 26.7137 9.629C27.9835 9.10285 29.3446 8.83203 30.7191 8.83203C32.0937 8.83203 33.4548 9.10285 34.7246 9.629C35.9945 10.1552 37.1482 10.9263 38.1199 11.8985C38.5676 12.3449 38.973 12.8317 39.3311 13.3527C40.7226 15.3677 41.3634 17.8069 41.1421 20.2457C40.9208 22.6844 39.8514 24.9684 38.1199 26.7001Z" fill="url(#paint4_linear_195_756)"/>
<path style="mix-blend-mode:overlay" d="M43.2875 17.0673C43.3529 15.6894 43.1293 14.3131 42.6309 13.0269C42.1325 11.7407 41.3704 10.573 40.3936 9.59898C39.8844 9.08919 39.3201 8.63769 38.7109 8.25282C39.682 7.76477 40.7559 7.51632 41.8427 7.52824C42.9294 7.54017 43.9976 7.81213 44.9577 8.32137C45.0205 8.77395 45.0015 9.23413 44.9016 9.68L43.2875 17.0673Z" fill="url(#paint5_linear_195_756)"/>
<defs>
<linearGradient id="paint0_linear_195_756" x1="12.9535" y1="36.9937" x2="43.5532" y2="6.39397" gradientUnits="userSpaceOnUse">
<stop stop-color="#212735"/>
<stop offset="1" stop-color="#0F79F4"/>
</linearGradient>
<linearGradient id="paint1_linear_195_756" x1="17.5151" y1="10.3896" x2="39.5435" y2="32.418" gradientUnits="userSpaceOnUse">
<stop stop-opacity="0.7"/>
<stop offset="1" stop-color="white"/>
</linearGradient>
<linearGradient id="paint2_linear_195_756" x1="45.2167" y1="10.4452" x2="33.568" y2="12.6016" gradientUnits="userSpaceOnUse">
<stop stop-color="#212735"/>
<stop offset="1" stop-color="#0F79F4"/>
</linearGradient>
<linearGradient id="paint3_linear_195_756" x1="30.8099" y1="19.1401" x2="13.8626" y2="36.0874" gradientUnits="userSpaceOnUse">
<stop stop-color="#212735"/>
<stop offset="1" stop-color="#48B2FF"/>
</linearGradient>
<linearGradient id="paint4_linear_195_756" x1="24.8972" y1="10.3204" x2="39.6983" y2="25.1216" gradientUnits="userSpaceOnUse">
<stop stop-color="#0F79F4"/>
<stop offset="1" stop-color="#48B2FF"/>
</linearGradient>
<linearGradient id="paint5_linear_195_756" x1="42.9278" y1="16.3739" x2="41.7732" y2="7.7717" gradientUnits="userSpaceOnUse">
<stop stop-opacity="0.7"/>
<stop offset="1" stop-color="white"/>
</linearGradient>
</defs>
</svg>
